<svg viewBox="-155.9397665634457 -112.00000000000001 724.5388003798708 200" xmlns="http://www.w3.org/2000/svg" xmlns:xlink="http://www.w3.org/1999/xlink" version="1.1" class="jsx-2263963463 artboard-inner" style="width: 480px; height: 132.498px; max-height: 100%;"><g transform="translate(7.246376811594203 28.8792270531401) scale(1.2492070463084957)" fill="#FFFFFF"><g id="line1"><path d="M52.066 6.926Q51.715 5.906 50.625 5.906L50.625 5.906L50.027 5.906Q49.852 5.871 49.605 5.871L49.605 5.871Q49.359 5.871 48.762 5.906L48.762 5.906L47.602 5.906Q46.828 5.906 46.371 6.539L46.371 6.539Q46.125 6.891 45.949 7.664L45.949 7.664L45.809 8.297Q45.738 8.648 45.668 8.859L45.668 8.859L45.633 8.930L45.492 9.281L44.930 10.160L44.332 11.039Q43.734 11.777 42.926 12.340L42.926 12.340L42.609 12.516L42.293 12.691Q41.941 12.867 41.730 13.078L41.730 13.078Q41.238 13.324 40.711 13.500L40.711 13.500Q40.254 13.500 39.867 13.711L39.867 13.711L39.762 13.746L39.586 13.852L39.551 13.781Q39.164 13.816 38.672 13.852L38.672 13.852Q38.250 13.746 37.617 13.746L37.617 13.746Q37.301 13.746 36.914 13.781L36.914 13.781L36.844 13.746L36.773 13.781L36.492 13.781Q36.316 13.781 36.316 13.711L36.316 13.711L36.316 13.641Q35.578 13.430 34.910 13.043L34.910 13.043L34.418 12.762Q33.891 12.375 33.363 11.883L33.363 11.883Q32.941 11.250 32.203 10.441L32.203 10.441L31.641 9.633Q31.043 8.367 30.586 7.488L30.586 7.488Q29.918 6.258 29.320 5.520L29.320 5.520Q28.793 4.465 28.266 3.516L28.266 3.516Q28.125 3.023 27.738 2.672L27.738 2.672L27.773 2.637L27.246 1.793Q27.176 1.441 26.473 0.598L26.473 0.598L26.121 0.105L25.980-0.070Q25.945-0.176 25.805-0.316L25.805-0.316L25.594-0.563L25.242-1.020L25.172-0.984L25.031-1.125Q25.031-1.160 25.066-1.195L25.066-1.195L24.820-1.477Q24.609-1.898 23.801-2.461L23.801-2.461L23.836-2.496L23.133-3.094Q23.133-3.023 23.063-2.988L23.063-2.988L22.781-3.199L22.852-3.305L22.430-3.621Q21.797-4.395 20.215-5.063L20.215-5.063Q18.773-5.660 17.648-5.695L17.648-5.695L17.332-5.766L17.332-7.348L17.262-7.313Q17.297-7.523 17.297-7.770L17.297-7.770L17.332-7.734L17.332-8.754L17.227-8.824Q17.227-9.070 17.262-9.281L17.262-9.281Q17.367-9.316 17.367-9.703L17.367-9.703L17.367-9.984L17.332-10.125L17.332-10.230Q17.508-10.793 17.508-11.602L17.508-11.602L17.508-11.883Q17.473-12.586 17.332-13.570L17.332-13.570L17.332-14.414Q17.367-14.590 17.367-14.871L17.367-14.871Q17.367-15.152 17.332-15.504L17.332-15.504L17.332-17.297L17.297-17.332L17.297-17.438L17.332-17.473L17.332-19.160Q17.262-19.230 17.262-19.266L17.262-19.266Q17.262-19.336 17.332-19.406L17.332-19.406L17.332-20.109L17.262-20.039L17.227-20.074L17.262-20.320L17.297-20.496Q17.367-20.531 17.367-20.813L17.367-20.813L17.332-21.023L17.332-21.164L17.367-21.480L17.438-21.797L17.438-21.938Q17.438-22.219 17.332-22.430L17.332-22.430L17.332-24.469Q17.578-25.137 17.578-26.473L17.578-26.473L17.578-27.105Q17.543-27.703 17.438-28.582L17.438-28.582L17.402-29.250Q17.332-29.602 17.332-29.813L17.332-29.813L17.332-31.570Q17.438-31.816 17.438-32.063L17.438-32.063Q17.438-32.309 17.332-32.555L17.332-32.555L17.332-36.527Q17.508-37.477 17.508-38.602L17.508-38.602L17.508-38.953Q17.508-40.008 17.332-40.676L17.332-40.676L17.332-43.629Q17.473-44.121 17.473-44.684L17.473-44.684Q17.473-45.211 17.332-45.809L17.332-45.809L17.332-46.336L17.297-46.301L17.297-46.441L17.332-46.406L17.332-46.723Q17.473-47.391 17.473-48.270L17.473-48.270L17.473-48.586Q17.473-49.359 17.332-49.816L17.332-49.816L17.332-51.750Q17.438-52.277 17.438-52.770L17.438-52.770Q17.438-53.297 17.332-53.824L17.332-53.824L17.332-55.547L17.402-56.109L17.438-56.707Q17.473-56.918 17.473-57.094L17.473-57.094Q17.473-57.516 17.332-57.832L17.332-57.832L17.332-58.359Q17.332-58.746 17.156-59.063L17.156-59.063Q17.016-59.590 16.453-59.766L16.453-59.766Q16.102-59.906 15.715-59.906L15.715-59.906Q15.574-59.906 15.398-59.871L15.398-59.871L14.906-59.871L14.941-59.836L14.906-59.801L14.520-59.836L14.520-59.871L14.344-59.871Q14.168-59.941 13.816-59.941L13.816-59.941Q13.500-59.941 13.008-59.871L13.008-59.871L12.727-59.871L12.410-59.836Q11.602-59.801 11.426-59.027L11.426-59.027L11.391-59.027Q11.180-58.605 10.969-58.008L10.969-58.008L10.617-56.953Q10.195-55.652 9.633-54.914L9.633-54.914Q9-54.141 7.840-53.473L7.840-53.473L6.855-52.910Q6.258-52.559 5.871-52.313L5.871-52.313L5.273-52.137L5.309-52.066L5.098-51.996L4.992-52.066Q4.254-51.926 3.516-51.891L3.516-51.891L3.129-51.926L2.742-51.996Q2.426-52.031 2.180-52.031L2.180-52.031L1.969-52.031L1.406-52.137L1.301-52.031Q1.125-52.102 0.844-52.242L0.844-52.242L0.844-52.313L0.422-52.488L0.035-52.699Q-0.457-52.980-0.773-53.051L-0.773-53.051Q-1.301-53.473-1.934-53.648L-1.934-53.648Q-2.074-53.719-2.250-53.719L-2.250-53.719Q-3.023-53.719-4.254-52.559L-4.254-52.559Q-5.660-51.188-5.766-50.309L-5.766-50.309Q-5.801-50.168-5.801-50.027L-5.801-50.027Q-5.801-49.816-5.730-49.605L-5.730-49.605Q-5.590-49.008-4.711-48.516L-4.711-48.516L-4.219-48.164Q-3.691-47.566-2.883-47.391L-2.883-47.391L-2.566-47.285L-2.004-47.004L-1.195-46.688Q0.879-45.809 2.742-45.809L2.742-45.809Q3.375-45.809 4.008-45.914L4.008-45.914L4.922-46.020L5.133-46.020Q5.590-46.020 5.906-46.160L5.906-46.160L7.102-46.441Q8.297-46.477 9.141-47.180L9.141-47.180L9.949-47.566Q10.336-47.672 10.688-47.918L10.688-47.918L11.004-48.164L11.355-48.410L11.355-47.848Q11.285-47.672 11.285-47.391L11.285-47.391Q11.285-47.145 11.355-46.828L11.355-46.828L11.355-44.965L11.391-45L11.391-44.824L11.355-44.684L11.355-44.156L11.320-43.559L11.285-42.926L11.285-42.574Q11.285-42.082 11.355-41.695L11.355-41.695L11.355-40.781Q11.320-40.430 11.320-40.008L11.320-40.008L11.320-39.551L11.355-38.355L11.355-38.180L11.285-36.492L11.285-36.035Q11.285-35.367 11.355-34.840L11.355-34.840L11.355-33.680Q11.320-33.434 11.320-33.188L11.320-33.188Q11.320-32.941 11.355-32.695L11.355-32.695L11.355-29.742Q11.215-28.898 11.215-28.090L11.215-28.090Q11.215-27.316 11.355-26.543L11.355-26.543L11.355-26.402L11.391-26.297L11.391-25.805L11.355-25.805L11.355-24.855L11.461-24.820L11.461-24.645L11.426-24.504L11.355-24.504L11.355-22.324L11.461-22.184L11.461-22.008Q11.426-21.973 11.355-21.867L11.355-21.867L11.355-21.445Q11.180-20.988 11.180-20.004L11.180-20.004Q11.215-19.125 11.355-18.527L11.355-18.527L11.355-17.438L11.426-17.332L11.426-17.297L11.355-17.262L11.355-16.418Q11.320-16.172 11.320-15.926L11.320-15.926Q11.320-15.715 11.355-15.469L11.355-15.469L11.355-9.176Q11.320-9 11.320-8.789L11.320-8.789Q11.320-8.613 11.355-8.402L11.355-8.402L11.355-7.137Q11.320-6.961 11.320-6.785L11.320-6.785Q11.320-6.609 11.355-6.398L11.355-6.398L11.355-5.695Q9.598-5.309 7.980-4.430L7.980-4.430Q7.102-4.219 6.258-3.340L6.258-3.340L5.625-2.813Q5.168-2.531 4.535-1.758L4.535-1.758Q3.656-0.809 2.988 0.281L2.988 0.281Q2.461 0.844 2.285 1.617L2.285 1.617L1.969 2.285L2.004 2.320L1.898 2.637L1.863 2.531L1.723 2.918L1.793 2.848L1.688 3.129L1.652 3.129Q1.336 3.727 1.160 4.605L1.160 4.605Q1.020 5.133 1.020 5.520L1.020 5.520Q1.020 5.871 1.125 6.117L1.125 6.117Q1.406 7.277 2.602 7.277L2.602 7.277L3.164 7.277Q3.656 7.348 4.148 7.348L4.148 7.348Q4.641 7.348 5.133 7.277L5.133 7.277L5.625 7.277Q5.941 7.277 6.258 7.137L6.258 7.137Q6.926 6.855 7.594 5.133L7.594 5.133L7.840 4.430L8.086 3.762Q8.367 3.023 8.578 2.707L8.578 2.707Q9.316 1.793 10.336 1.125L10.336 1.125L10.266 1.055Q10.477 0.914 10.688 0.844L10.688 0.844L10.652 0.914L10.969 0.738Q11.426 0.633 11.813 0.387L11.813 0.387Q12.270 0.211 12.691 0.105L12.691 0.105L12.902 0.105Q13.465 0.105 13.852-0.070L13.852-0.070Q14.098-0.105 14.344-0.105L14.344-0.105Q14.590-0.105 14.836-0.070L14.836-0.070Q15.188 0.035 15.609 0.141L15.609 0.141L16.348 0.246Q17.297 0.387 17.895 0.668L17.895 0.668L17.930 0.563Q18.211 0.633 18.457 0.809L18.457 0.809L18.316 0.879L18.773 1.125Q18.984 1.406 19.336 1.547L19.336 1.547Q19.863 1.969 20.355 2.496L20.355 2.496L20.426 2.496L20.637 2.742L20.602 2.813L20.953 3.199Q21.199 3.586 21.551 4.184L21.551 4.184L22.148 5.238Q22.852 6.504 23.449 7.172L23.449 7.172L24.398 8.965L24.504 9.035L24.539 9.105L24.504 9.141L24.855 9.844Q24.996 10.371 25.348 10.758L25.348 10.758L25.875 11.672Q26.086 12.340 26.613 12.832L26.613 12.832L26.789 13.113Q27.598 14.449 28.230 15.082L28.230 15.082Q29.180 16.207 30.234 17.086L30.234 17.086Q30.445 17.402 31.465 18L31.465 18Q33.785 19.441 36.633 19.758L36.633 19.758Q37.406 20.004 38.531 20.004L38.531 20.004Q39.094 20.004 39.727 19.934L39.727 19.934Q41.766 19.793 42.680 19.125L42.680 19.125Q43.277 18.949 43.840 18.703L43.840 18.703Q44.508 18.563 45.492 17.895L45.492 17.895Q45.879 17.648 46.301 17.297L46.301 17.297L47.004 16.770Q47.602 16.523 47.883 15.961L47.883 15.961L48.586 15.258Q49.359 14.766 50.098 13.570L50.098 13.570Q50.660 12.656 51.152 11.496L51.152 11.496L51.223 11.285L51.328 11.039Q51.434 10.758 51.539 10.512L51.539 10.512Q51.820 9.773 51.961 9.211L51.961 9.211Q52.242 8.297 52.242 7.664L52.242 7.664Q52.242 7.207 52.066 6.926L52.066 6.926Q51.996 6.750 51.996 6.715L51.996 6.715L52.031 6.785Q52.066 6.891 52.066 6.926L52.066 6.926Z"></path><path d="M49.852-4.605L49.887-4.219L49.887-3.586Q49.887-3.340 49.852-3.164L49.852-3.164L49.852-2.637L49.816-2.602L49.852-2.566L49.852-1.617Q49.852-1.020 49.465-0.598L49.465-0.598Q49.008-0.070 48.234-0.070L48.234-0.070Q47.988-0.070 47.742-0.105L47.742-0.105L46.406-0.105L44.719-0.070L43.031 0L42.258 0Q40.746 0 39.656-0.105L39.656-0.105L39.094-0.105Q38.531-0.070 38.039-0.070L38.039-0.070Q37.547-0.070 37.125-0.105L37.125-0.105L35.754-0.105Q35.578-0.070 35.402-0.070L35.402-0.070Q35.227-0.070 35.016-0.105L35.016-0.105L34.383-0.105Q33.223-0.105 32.836-1.688L32.836-1.688Q32.660-2.320 32.660-2.918L32.660-2.918Q32.660-3.586 32.906-4.184L32.906-4.184Q32.977-4.324 32.977-4.395L32.977-4.395Q32.977-4.500 32.906-4.570L32.906-4.570L32.906-8.402Q32.801-9.211 32.766-9.949L32.766-9.949Q32.766-10.898 32.906-11.496L32.906-11.496L32.906-12.234Q32.836-12.621 32.836-12.902L32.836-12.902Q32.836-13.219 32.906-13.395L32.906-13.395L32.906-13.430Q33.012-13.641 33.012-13.922L33.012-13.922L32.906-13.887L32.906-14.906Q32.906-15.152 32.941-15.539L32.941-15.539L32.906-15.574L32.906-16.418Q32.766-16.945 32.766-17.613L32.766-17.613L32.836-18.211L32.906-18.773L32.906-19.371L32.836-19.898L32.801-20.461Q32.801-21.094 32.906-21.586L32.906-21.586L32.906-26.789L32.941-26.789L32.977-27L32.906-27L32.906-29.637Q32.836-30.023 32.836-30.305L32.836-30.305Q32.836-30.621 32.906-30.797L32.906-30.797L32.906-31.887Q32.695-32.484 32.695-33.504L32.695-33.504L32.695-34.031Q32.730-34.453 32.801-35.191L32.801-35.191L32.871-35.754L32.906-36.246L32.906-37.652Q32.871-37.969 32.871-38.215L32.871-38.215Q32.871-38.953 33.117-39.234L33.117-39.234Q33.328-39.586 33.680-39.797L33.680-39.797L33.680-39.762L33.820-39.867L33.961-39.902Q34.277-40.043 34.840-40.043L34.840-40.043L35.754-39.973L36.949-39.973L37.301-40.008L37.652-40.043L38.426-40.113L38.707-40.113Q39.410-40.113 39.867-39.973L39.867-39.973L40.641-39.973Q40.641-39.902 40.676-39.867L40.676-39.867L40.957-39.867L40.922-39.973L41.484-39.973Q41.555-39.902 41.625-39.902L41.625-39.902Q41.695-39.902 41.766-39.973L41.766-39.973L41.836-39.973Q42.223-40.113 42.785-40.113L42.785-40.113L42.996-40.113L43.594-40.043L44.121-39.973L45.809-39.973L46.266-40.008Q46.512-40.008 46.723-39.973L46.723-39.973L48.305-39.973Q48.727-39.973 49.078-39.762L49.078-39.762Q49.465-39.551 49.641-39.199L49.641-39.199Q49.922-38.848 49.922-38.355L49.922-38.355Q49.922-38.145 49.852-37.898L49.852-37.898L49.852-36.492Q49.816-36.527 49.781-36.527L49.781-36.527Q49.746-36.527 49.711-36.457L49.711-36.457L49.711-36.387L49.852-36.281L49.852-35.473Q49.852-35.297 49.781-35.086L49.781-35.086Q49.676-34.242 48.973-34.137L48.973-34.137Q48.656-33.996 48.340-33.996L48.340-33.996L47.813-33.996Q47.602-33.926 47.320-33.926L47.320-33.926Q47.039-33.926 46.688-33.996L46.688-33.996L45.246-33.996L45.176-34.066L44.684-34.066L44.719-33.996L39.023-33.996L38.883-33.855L38.883-33.504L38.707-33.574L38.742-33.363L38.742-33.223L38.777-33.082L38.883-33.082L38.883-32.309L38.813-32.344L38.813-32.168L38.883-32.238L38.848-31.711Q38.953-31.219 38.953-30.902L38.953-30.902Q38.953-30.656 38.883-30.480L38.883-30.480L38.883-29.496L38.848-29.602Q38.988-29.074 38.988-28.441L38.988-28.441Q38.988-27.914 38.883-27.352L38.883-27.352L38.883-26.016L41.309-26.016L41.625-26.051L41.977-26.086L42.152-26.086Q42.434-26.086 42.645-26.016L42.645-26.016L42.715-26.016L42.715-25.980L43.066-25.910L42.996-26.016L43.805-26.016Q44.051-26.086 44.367-26.086L44.367-26.086L44.930-26.016L45.352-26.016Q45.668-26.016 45.984-25.875L45.984-25.875L46.090-25.805Q46.863-25.383 46.863-24.539L46.863-24.539L46.863-22.008Q46.934-21.797 46.934-21.621L46.934-21.621Q46.934-21.270 46.723-20.918L46.723-20.918Q46.371-20.180 45.598-20.074L45.598-20.074Q45.352-20.004 44.965-20.004L44.965-20.004L44.648-20.039L42.820-20.039Q42.363-19.969 41.801-19.969L41.801-19.969Q41.273-19.969 40.676-20.039L40.676-20.039L39.516-20.039L39.445-20.145L39.375-20.250L39.094-20.039L38.883-20.039L38.883-19.230Q38.918-19.090 38.918-18.879L38.918-18.879L38.883-18.492L38.883-17.719Q38.988-17.016 38.988-16.453L38.988-16.453Q38.988-15.891 38.883-15.504L38.883-15.504L38.883-14.836L38.848-14.766L38.848-14.414L38.883-10.582Q38.988-10.336 38.988-10.090L38.988-10.090Q38.988-9.809 38.883-9.527L38.883-9.527L38.883-8.402L38.953-8.016L38.988-7.559L38.988-7.348Q38.988-6.926 38.883-6.715L38.883-6.715L38.883-6.082L39.727-6.082Q40.043-6.117 40.465-6.117L40.465-6.117L40.887-6.117L41.449-6.047L42.012-6.012L41.871-6.082L43.559-6.082Q43.734-6.117 43.980-6.117L43.980-6.117L44.648-6.117L45-6.082L48.340-6.082Q49.570-6.082 49.816-4.887L49.816-4.887Q49.852-4.746 49.852-4.605L49.852-4.605Z"></path><path d="M76.324-8.895L76.324-8.578L76.289-8.191L76.219-7.805Q76.148-7.383 75.973-7.102L75.973-7.102L75.832-6.645L75.762-6.715L75.691-6.504L75.797-6.574L75.727-6.363L75.691-6.398L75.691-6.223Q75.691-5.590 75.234-5.133L75.234-5.133Q74.637-3.938 73.723-2.918L73.723-2.918L73.723-2.988L73.406-2.672L73.406-2.602Q73.125-2.320 72.738-2.004L72.738-2.004Q72.492-1.688 72.176-1.512L72.176-1.512Q71.789-1.266 71.367-0.984L71.367-0.984Q70.242-0.035 68.449 0.141L68.449 0.141Q67.992 0.246 67.465 0.316L67.465 0.316Q67.043 0.387 66.551 0.387L66.551 0.387L66.270 0.387Q65.180 0.387 64.160 0.141L64.160 0.141L63.563 0Q63.070-0.141 62.613-0.352L62.613-0.352Q61.910-0.563 61.313-1.020L61.313-1.020L61.277-0.984L60.750-1.371Q60.258-1.582 59.941-1.969L59.941-1.969Q59.063-2.707 58.430-3.621L58.430-3.621Q56.918-4.922 56.672-7.242L56.672-7.242Q56.355-8.508 56.355-9.773L56.355-9.773L56.355-10.301Q56.250-10.582 56.250-10.828L56.250-10.828Q56.250-11.074 56.355-11.320L56.355-11.320L56.355-11.672Q56.391-11.707 56.391-11.742L56.391-11.742Q56.391-11.777 56.355-11.777L56.355-11.777L56.355-12.199L56.391-12.234L56.355-12.270L56.355-12.973L56.320-13.359L56.250-13.676L56.250-13.852Q56.250-14.168 56.355-14.379L56.355-14.379L56.355-14.906L56.461-14.766Q56.461-15.047 56.426-15.328L56.426-15.328L56.355-15.258L56.355-16.348L56.285-17.086L56.250-17.895Q56.250-18.809 56.355-19.406L56.355-19.406L56.355-19.617L56.391-19.652Q56.426-19.793 56.426-19.934L56.426-19.934L56.355-19.969L56.355-20.004L56.426-20.004L56.426-20.285L56.355-20.215L56.355-21.551Q56.250-21.797 56.250-22.078L56.250-22.078Q56.250-22.359 56.355-22.676L56.355-22.676L56.355-23.590Q56.145-24.434 56.145-25.699L56.145-25.699L56.145-26.051Q56.180-26.648 56.215-27.352L56.215-27.352Q56.285-27.844 56.355-28.547L56.355-28.547L56.355-29.883Q56.250-30.375 56.250-30.867L56.250-30.867Q56.250-32.309 57.023-33.961L57.023-33.961Q57.445-35.051 58.113-36.070L58.113-36.070Q58.430-36.563 59.027-37.230L59.027-37.230Q59.309-37.723 59.801-37.969L59.801-37.969Q60.328-38.461 60.891-38.848L60.891-38.848Q61.734-39.586 62.613-39.727L62.613-39.727Q63.035-39.902 63.492-40.043L63.492-40.043Q64.301-40.430 65.145-40.430L65.145-40.430L65.285-40.430Q65.742-40.465 66.234-40.465L66.234-40.465L66.832-40.465Q67.148-40.465 67.816-40.324L67.816-40.324L67.781-40.359L68.063-40.324L68.414-40.254Q68.836-40.219 69.152-40.113L69.152-40.113Q70.031-39.938 70.418-39.586L70.418-39.586Q71.438-39.094 72.316-38.426L72.316-38.426L72.281-38.391L72.633-38.145L72.668-38.180L72.879-37.969Q73.512-37.582 74.109-36.914L74.109-36.914Q74.777-36.141 74.918-35.543L74.918-35.543Q75.164-35.086 75.375-34.664L75.375-34.664Q75.762-34.277 75.762-33.750L75.762-33.750L75.762-33.680Q75.938-33.188 76.043-32.625L76.043-32.625Q76.184-32.379 76.184-32.098L76.184-32.098Q76.184-31.957 76.148-31.816L76.148-31.816Q76.078-31.430 75.832-31.113L75.832-31.113Q75.621-30.586 75.164-30.586L75.164-30.586L75.094-30.586Q74.848-30.516 74.637-30.516L74.637-30.516L71.578-30.516Q71.227-30.516 70.875-30.691L70.875-30.691Q70.559-30.797 70.418-31.078L70.418-31.078Q70.242-31.289 70.137-31.570L70.137-31.570L69.891-32.063Q69.645-32.730 69.363-33.047L69.363-33.047Q68.871-33.398 68.484-33.855L68.484-33.855Q68.098-34.102 67.641-34.242L67.641-34.242Q66.867-34.348 65.496-34.418L65.496-34.418L65.461-34.418L65.145-34.383L65.180-34.313L65.109-34.313L65.145-34.348L64.969-34.242Q63.598-33.750 62.859-32.449L62.859-32.449L62.719-32.098Q62.332-31.289 62.332-30.375L62.332-30.375L62.332-30.305Q62.297-30.340 62.262-30.340L62.262-30.340L62.227-30.305L62.227-29.848L62.332-29.813L62.332-28.828Q62.508-28.266 62.508-27.281L62.508-27.281Q62.508-26.297 62.332-25.734L62.332-25.734L62.332-24.645Q62.438-24.152 62.438-23.484L62.438-23.484L62.367-22.887L62.332-22.324L62.332-21.270Q62.297-21.234 62.297-21.164L62.297-21.164Q62.297-21.129 62.332-21.059L62.332-21.059L62.332-20.531Q62.508-20.039 62.508-19.055L62.508-19.055Q62.473-18.141 62.332-17.543L62.332-17.543L62.332-16.805L62.227-16.875Q62.227-16.734 62.262-16.594L62.262-16.594L62.332-16.629L62.332-16.418Q62.438-16.207 62.438-15.926L62.438-15.926Q62.438-15.645 62.332-15.328L62.332-15.328L62.332-13.359L62.297-13.359Q62.438-13.078 62.438-12.762L62.438-12.762Q62.438-12.516 62.332-12.199L62.332-12.199L62.332-10.055L62.473-9.070Q62.543-8.473 62.648-8.086L62.648-8.086Q63.070-7.137 63.844-6.504L63.844-6.504Q65.426-5.625 66.445-5.590L66.445-5.590Q66.832-5.625 67.254-5.695L67.254-5.695Q67.711-5.977 68.238-6.117L68.238-6.117Q69.152-6.609 69.715-7.488L69.715-7.488Q69.996-8.332 70.313-10.336L70.313-10.336L70.313-14.730L70.348-14.730L70.313-15.152L70.313-15.293L70.242-15.574L70.207-15.820L70.207-15.961Q70.207-16.172 70.313-16.383L70.313-16.383L70.313-17.051L69.293-17.051L69.293-17.086L68.906-17.051L66.832-17.051L66.867-17.086L66.691-17.086L66.691-17.051Q66.480-17.086 66.270-17.156L66.270-17.156Q65.566-17.332 65.426-18.035L65.426-18.035Q65.320-18.281 65.320-18.563L65.320-18.563L65.320-20.918Q65.250-21.234 65.250-21.480L65.250-21.480Q65.250-21.867 65.426-22.078L65.426-22.078Q65.672-22.711 66.270-22.922L66.270-22.922L66.129-22.781Q66.516-23.027 66.938-23.027L66.938-23.027L67.430-23.027L67.465-22.957L67.852-22.957L67.922-23.027L68.273-23.027Q68.555-23.133 68.801-23.133L68.801-23.133Q69.082-23.133 69.328-23.027L69.328-23.027L69.469-22.992L69.434-23.027L70.383-23.027Q70.559-23.063 70.770-23.063L70.770-23.063L71.297-23.063L71.578-23.027L74.215-23.027L74.285-22.957L74.461-22.957L74.496-23.027L74.777-23.027Q75.270-23.027 75.691-22.711L75.691-22.711Q76.324-22.289 76.324-21.375L76.324-21.375Q76.324-21.199 76.289-21.023L76.289-21.023L76.289-17.859Q76.324-17.684 76.324-17.473L76.324-17.473Q76.324-17.297 76.289-17.086L76.289-17.086L76.289-15.680Q76.324-15.574 76.324-15.434L76.324-15.434Q76.324-15.328 76.289-15.223L76.289-15.223L76.289-13.289L76.219-13.324L76.219-13.148L76.289-13.219L76.289-12.797L76.254-12.797L76.254-12.445L76.289-12.480L76.289-11.004Q76.324-10.793 76.324-10.547L76.324-10.547Q76.324-10.336 76.289-10.125L76.289-10.125L76.289-9.563L76.254-9.211L76.324-8.895Z"></path><path d="M100.160-4.605L100.195-4.219L100.195-3.586Q100.195-3.340 100.160-3.164L100.160-3.164L100.160-2.637L100.125-2.602L100.160-2.566L100.160-1.617Q100.160-1.020 99.773-0.598L99.773-0.598Q99.316-0.070 98.543-0.070L98.543-0.070Q98.297-0.070 98.051-0.105L98.051-0.105L96.715-0.105L95.027-0.070L93.340 0L92.566 0Q91.055 0 89.965-0.105L89.965-0.105L89.402-0.105Q88.840-0.070 88.348-0.070L88.348-0.070Q87.855-0.070 87.434-0.105L87.434-0.105L86.063-0.105Q85.887-0.070 85.711-0.070L85.711-0.070Q85.535-0.070 85.324-0.105L85.324-0.105L84.691-0.105Q83.531-0.105 83.145-1.688L83.145-1.688Q82.969-2.320 82.969-2.918L82.969-2.918Q82.969-3.586 83.215-4.184L83.215-4.184Q83.285-4.324 83.285-4.395L83.285-4.395Q83.285-4.500 83.215-4.570L83.215-4.570L83.215-8.402Q83.109-9.211 83.074-9.949L83.074-9.949Q83.074-10.898 83.215-11.496L83.215-11.496L83.215-12.234Q83.145-12.621 83.145-12.902L83.145-12.902Q83.145-13.219 83.215-13.395L83.215-13.395L83.215-13.430Q83.320-13.641 83.320-13.922L83.320-13.922L83.215-13.887L83.215-14.906Q83.215-15.152 83.250-15.539L83.250-15.539L83.215-15.574L83.215-16.418Q83.074-16.945 83.074-17.613L83.074-17.613L83.145-18.211L83.215-18.773L83.215-19.371L83.145-19.898L83.109-20.461Q83.109-21.094 83.215-21.586L83.215-21.586L83.215-26.789L83.250-26.789L83.285-27L83.215-27L83.215-29.637Q83.145-30.023 83.145-30.305L83.145-30.305Q83.145-30.621 83.215-30.797L83.215-30.797L83.215-31.887Q83.004-32.484 83.004-33.504L83.004-33.504L83.004-34.031Q83.039-34.453 83.109-35.191L83.109-35.191L83.180-35.754L83.215-36.246L83.215-37.652Q83.180-37.969 83.180-38.215L83.180-38.215Q83.180-38.953 83.426-39.234L83.426-39.234Q83.637-39.586 83.988-39.797L83.988-39.797L83.988-39.762L84.129-39.867L84.270-39.902Q84.586-40.043 85.148-40.043L85.148-40.043L86.063-39.973L87.258-39.973L87.609-40.008L87.961-40.043L88.734-40.113L89.016-40.113Q89.719-40.113 90.176-39.973L90.176-39.973L90.949-39.973Q90.949-39.902 90.984-39.867L90.984-39.867L91.266-39.867L91.230-39.973L91.793-39.973Q91.863-39.902 91.934-39.902L91.934-39.902Q92.004-39.902 92.074-39.973L92.074-39.973L92.145-39.973Q92.531-40.113 93.094-40.113L93.094-40.113L93.305-40.113L93.902-40.043L94.430-39.973L96.117-39.973L96.574-40.008Q96.820-40.008 97.031-39.973L97.031-39.973L98.613-39.973Q99.035-39.973 99.387-39.762L99.387-39.762Q99.773-39.551 99.949-39.199L99.949-39.199Q100.230-38.848 100.230-38.355L100.230-38.355Q100.230-38.145 100.160-37.898L100.160-37.898L100.160-36.492Q100.125-36.527 100.090-36.527L100.090-36.527Q100.055-36.527 100.020-36.457L100.020-36.457L100.020-36.387L100.160-36.281L100.160-35.473Q100.160-35.297 100.090-35.086L100.090-35.086Q99.984-34.242 99.281-34.137L99.281-34.137Q98.965-33.996 98.648-33.996L98.648-33.996L98.121-33.996Q97.910-33.926 97.629-33.926L97.629-33.926Q97.348-33.926 96.996-33.996L96.996-33.996L95.555-33.996L95.484-34.066L94.992-34.066L95.027-33.996L89.332-33.996L89.191-33.855L89.191-33.504L89.016-33.574L89.051-33.363L89.051-33.223L89.086-33.082L89.191-33.082L89.191-32.309L89.121-32.344L89.121-32.168L89.191-32.238L89.156-31.711Q89.262-31.219 89.262-30.902L89.262-30.902Q89.262-30.656 89.191-30.480L89.191-30.480L89.191-29.496L89.156-29.602Q89.297-29.074 89.297-28.441L89.297-28.441Q89.297-27.914 89.191-27.352L89.191-27.352L89.191-26.016L91.617-26.016L91.934-26.051L92.285-26.086L92.461-26.086Q92.742-26.086 92.953-26.016L92.953-26.016L93.023-26.016L93.023-25.980L93.375-25.910L93.305-26.016L94.113-26.016Q94.359-26.086 94.676-26.086L94.676-26.086L95.238-26.016L95.660-26.016Q95.977-26.016 96.293-25.875L96.293-25.875L96.398-25.805Q97.172-25.383 97.172-24.539L97.172-24.539L97.172-22.008Q97.242-21.797 97.242-21.621L97.242-21.621Q97.242-21.270 97.031-20.918L97.031-20.918Q96.680-20.180 95.906-20.074L95.906-20.074Q95.660-20.004 95.273-20.004L95.273-20.004L94.957-20.039L93.129-20.039Q92.672-19.969 92.109-19.969L92.109-19.969Q91.582-19.969 90.984-20.039L90.984-20.039L89.824-20.039L89.754-20.145L89.684-20.250L89.402-20.039L89.191-20.039L89.191-19.230Q89.227-19.090 89.227-18.879L89.227-18.879L89.191-18.492L89.191-17.719Q89.297-17.016 89.297-16.453L89.297-16.453Q89.297-15.891 89.191-15.504L89.191-15.504L89.191-14.836L89.156-14.766L89.156-14.414L89.191-10.582Q89.297-10.336 89.297-10.090L89.297-10.090Q89.297-9.809 89.191-9.527L89.191-9.527L89.191-8.402L89.262-8.016L89.297-7.559L89.297-7.348Q89.297-6.926 89.191-6.715L89.191-6.715L89.191-6.082L90.035-6.082Q90.352-6.117 90.773-6.117L90.773-6.117L91.195-6.117L91.758-6.047L92.320-6.012L92.180-6.082L93.867-6.082Q94.043-6.117 94.289-6.117L94.289-6.117L94.957-6.117L95.309-6.082L98.648-6.082Q99.879-6.082 100.125-4.887L100.125-4.887Q100.160-4.746 100.160-4.605L100.160-4.605Z"></path><path d="M126.527-22.711L126.527-17.156Q126.457-17.121 126.457-17.051L126.457-17.051Q126.457-16.980 126.527-16.910L126.527-16.910L126.527-15.996L126.457-15.926L126.457-15.891L126.527-15.785L126.527-15.398Q126.563-15.293 126.563-15.117L126.563-15.117Q126.563-14.836 126.457-14.379L126.457-14.379L126.492-14.344L126.527-14.449L126.527-12.480Q126.633-12.234 126.633-11.988L126.633-11.988Q126.633-11.742 126.527-11.461L126.527-11.461L126.527-11.355L126.492-11.355Q126.457-11.215 126.457-11.004L126.457-11.004L126.527-10.969L126.527-10.547L126.457-10.512L126.422-9.844L126.492-9.633L126.527-9.668L126.527-9.316L126.457-9.316Q126.457-9.141 126.492-8.930L126.492-8.930L126.527-8.789L126.527-8.367Q126.633-7.910 126.633-7.242L126.633-7.242L126.598-6.680L126.527-6.152L126.527-4.078L126.598-3.656L126.633-3.199L126.633-2.988Q126.633-2.566 126.527-2.320L126.527-2.320L126.527-1.723Q126.527-1.371 126.352-1.020L126.352-1.020Q126.246-0.527 125.754-0.422L125.754-0.422Q125.402-0.246 125.051-0.246L125.051-0.246L124.594-0.246Q124.418-0.141 124.172-0.141L124.172-0.141Q123.926-0.141 123.609-0.246L123.609-0.246L122.203-0.246L122.309-0.316Q122.168-0.316 122.063-0.281L122.063-0.281L121.887-0.246Q121.676-0.141 121.500-0.141L121.500-0.141Q121.254-0.141 121.008-0.316L121.008-0.316Q120.832-0.352 120.691-0.457L120.691-0.457L120.727-0.457L120.551-0.598L120.480-0.668Q120.375-0.738 120.340-0.773L120.340-0.773L120.305-0.773L120.234-0.879Q119.953-1.125 119.707-1.723L119.707-1.723Q119.531-2.215 119.531-2.566L119.531-2.566L119.531-2.672L119.109-3.832Q118.547-4.922 118.477-5.695L118.477-5.695L117.422-8.684Q117.281-9 117.211-9.352L117.211-9.352L116.227-12.094L116.086-12.375L115.945-12.656Q115.805-13.008 115.805-13.289L115.805-13.289L115.348-14.625L114.820-16.172Q114.574-16.523 114.398-17.121L114.398-17.121L114.258-17.613L114.152-18.105L113.730-19.301Q113.625-19.512 113.449-19.898L113.449-19.898L113.168-20.531Q112.852-21.305 112.852-21.797L112.852-21.797L112.605-22.500L112.605-21.902Q112.711-21.691 112.711-21.445L112.711-21.445Q112.711-21.234 112.605-20.988L112.605-20.988L112.605-20.496Q112.570-20.531 112.535-20.531L112.535-20.531Q112.500-20.531 112.500-20.461L112.500-20.461Q112.500-20.426 112.535-20.320L112.535-20.320L112.605-20.355L112.605-19.160L112.641-18.773L112.641-18.492Q112.641-18.246 112.605-18.070L112.605-18.070Q112.605-15.223 112.570-15.223L112.570-15.223Q112.641-14.871 112.641-14.520L112.641-14.520Q112.641-14.238 112.605-13.922L112.605-13.922L112.605-11.813Q112.570-11.848 112.535-11.848L112.535-11.848L112.500-11.848L112.500-11.391L112.605-11.461L112.605-5.309Q112.676-4.957 112.676-4.676L112.676-4.676Q112.676-4.395 112.605-4.219L112.605-4.219L112.605-3.129Q112.711-2.813 112.711-2.426L112.711-2.426Q112.711-2.250 112.676-2.039L112.676-2.039Q112.641-1.336 112.395-0.984L112.395-0.984Q112.184-0.668 111.867-0.457L111.867-0.457Q111.270 0 109.898 0L109.898 0Q109.512 0 109.055-0.035L109.055-0.035Q106.945-0.211 106.734-1.160L106.734-1.160Q106.629-1.441 106.629-1.723L106.629-1.723Q106.629-2.074 106.559-2.602L106.559-2.602L106.523-3.094L106.453-3.551Q106.418-3.867 106.418-4.148L106.418-4.148Q106.418-4.887 106.629-5.309L106.629-5.309L106.629-6.363Q106.523-6.645 106.523-6.891L106.523-6.891Q106.523-7.137 106.629-7.383L106.629-7.383L106.629-7.664Q106.699-7.734 106.699-7.805L106.699-7.805Q106.699-7.875 106.629-7.910L106.629-7.910L106.629-8.508Q106.559-8.895 106.559-9.352L106.559-9.352Q106.559-9.809 106.629-10.301L106.629-10.301L106.629-11.566Q106.559-11.777 106.559-12.059L106.559-12.059L106.629-12.586L106.629-14.098L106.699-14.063L106.699-14.273L106.629-14.168L106.629-15.609Q106.594-15.820 106.594-16.031L106.594-16.031Q106.594-16.277 106.629-16.488L106.629-16.488L106.629-17.543Q106.523-17.965 106.523-18.527L106.523-18.527L106.523-18.844L106.594-19.512L106.629-20.145L106.629-20.742L106.699-20.777L106.734-20.988L106.664-20.953L106.734-21.023L106.734-21.129L106.629-21.234L106.629-21.797Q106.453-22.254 106.453-23.027L106.453-23.027L106.453-23.273Q106.453-24.082 106.629-24.785L106.629-24.785L106.629-30.445L106.699-30.516L106.699-30.656L106.629-30.762L106.629-31.922Q106.488-32.414 106.488-32.906L106.488-32.906Q106.488-33.434 106.629-33.961L106.629-33.961L106.629-35.227Q106.594-35.438 106.594-35.648L106.594-35.648Q106.594-35.859 106.629-36.070L106.629-36.070L106.629-36.809L106.559-37.230L106.523-37.688L106.523-38.074Q106.523-38.426 106.559-38.707L106.559-38.707Q106.699-39.902 107.648-40.008L107.648-40.008Q107.895-40.113 108.105-40.113L108.105-40.113L108.457-40.113Q108.949-40.254 109.406-40.254L109.406-40.254Q109.863-40.254 110.320-40.113L110.320-40.113L110.672-40.113L110.707-40.008L110.918-40.008L110.988-40.043L110.953-40.113L111.375-40.113Q111.480-40.148 111.621-40.148L111.621-40.148Q111.832-40.148 112.043-40.043L112.043-40.043Q112.289-40.008 112.500-39.867L112.500-39.867L112.430-39.797Q112.746-39.586 112.957-39.234L112.957-39.234L113.027-39.305L113.133-39.094L113.309-38.602Q113.906-37.828 114.539-35.895L114.539-35.895Q115.066-34.313 115.277-32.941L115.277-32.941L116.016-30.762Q116.262-30.410 116.473-29.742L116.473-29.742L116.613-29.180L116.754-28.652L116.895-28.336L117.141-27.773L117.352-27.246Q117.633-26.578 117.668-26.051L117.668-26.051L118.020-25.066Q118.301-24.680 118.477-24.047L118.477-24.047L118.652-23.484L118.793-22.922L118.969-22.430Q119.953-20.250 120.270-18.668L120.270-18.668L120.410-18.246L120.270-18.211L120.270-18.105L120.480-18.105L120.551-17.824L120.551-18.105L120.691-18.105L120.621-18.141L120.551-18.211L120.551-19.336Q120.480-19.512 120.480-19.793L120.480-19.793Q120.480-20.074 120.551-20.461L120.551-20.461L120.551-21.164Q120.480-21.621 120.480-22.184L120.480-22.184Q120.480-22.781 120.551-23.449L120.551-23.449L120.551-24.082L120.480-24.645L120.445-25.207L120.445-25.453Q120.445-25.945 120.551-26.297L120.551-26.297L120.551-27L120.621-26.930L120.621-27.176L120.551-27.070L120.551-28.055Q120.516-28.371 120.516-28.723L120.516-28.723Q120.516-29.039 120.551-29.391L120.551-29.391L120.551-29.988L120.516-30.305L120.445-30.586Q120.445-30.902 120.551-31.184L120.551-31.184L120.551-33.082Q120.480-33.363 120.480-33.645L120.480-33.645Q120.480-33.961 120.551-34.242L120.551-34.242Q120.551-34.313 120.586-34.313L120.586-34.313L120.586-34.488L120.551-34.488L120.551-35.438L120.516-35.648L120.445-36.176Q120.375-36.844 120.375-37.371L120.375-37.371L120.375-37.582Q120.375-38.848 120.762-39.340L120.762-39.340Q121.184-40.113 122.063-40.113L122.063-40.113L122.555-40.113Q123.117-40.184 123.645-40.254L123.645-40.254L124.102-40.254Q124.523-40.254 124.875-40.219L124.875-40.219Q126.352-40.008 126.492-38.953L126.492-38.953L126.527-38.602Q126.457-38.531 126.457-38.426L126.457-38.426Q126.457-38.320 126.492-38.215L126.492-38.215L126.527-38.215L126.527-36.984Q126.738-36.246 126.738-35.508L126.738-35.508Q126.738-34.805 126.527-34.066L126.527-34.066L126.527-33.293L126.457-33.258L126.422-33.012L126.422-32.836L126.527-32.836L126.527-32.730L126.422-32.625L126.422-32.273L126.527-32.203L126.527-27.949Q126.668-27.527 126.668-26.930L126.668-26.930Q126.668-26.332 126.527-25.559L126.527-25.559L126.527-23.977L126.598-23.660L126.633-23.344L126.633-23.203Q126.633-22.922 126.527-22.711L126.527-22.711Z"></path><path d="M147.375-9.211L147.340-9.070Q146.918-7.453 145.266-6.539L145.266-6.539Q144.598-6.188 143.895-6.117L143.895-6.117L142.102-6.117L142.102-6.082L141.891-6.047L141.574-6.047L141.574-6.117L140.836-6.117Q140.730-6.152 140.590-6.152L140.590-6.152Q140.449-6.152 140.309-6.117L140.309-6.117L139.535-6.117L139.500-6.152L139.500-7.207Q139.641-7.840 139.641-8.438L139.641-8.438Q139.641-9.070 139.500-9.668L139.500-9.668L139.500-10.160L139.465-10.230L139.465-10.336L139.500-10.371L139.500-10.617Q139.570-11.039 139.570-11.566L139.570-11.566L139.570-12.621L139.500-13.254L139.500-14.590Q139.711-15.047 139.711-16.172L139.711-16.172L139.711-16.523Q139.676-17.824 139.500-18.527L139.500-18.527L139.500-20.602Q139.676-21.164 139.676-22.078L139.676-22.078L139.676-22.641L139.570-23.730Q139.535-24.398 139.500-24.715L139.500-24.715L139.500-25.805L139.465-25.770L139.465-25.840L139.500-25.805L139.500-26.473Q139.570-26.754 139.570-27.035L139.570-27.035Q139.570-27.352 139.500-27.633L139.500-27.633L139.500-28.406Q139.605-28.793 139.605-29.039L139.605-29.039Q139.605-29.320 139.500-29.496L139.500-29.496L139.500-31.043L139.430-30.973L139.430-31.324L139.500-31.254L139.500-31.570Q139.570-31.816 139.570-32.168L139.570-32.168L139.535-32.484L139.500-32.766L139.500-34.031L139.816-34.031L139.852-34.066L139.957-34.031L140.133-34.031Q140.344-33.926 140.730-33.926L140.730-33.926L140.941-33.926L141.328-33.996L141.715-34.031L141.750-34.031L142.313-33.961Q142.629-33.961 142.840-34.031L142.840-34.031L143.508-34.031Q144.316-34.031 145.055-33.680L145.055-33.680L145.512-33.293L145.969-32.941Q146.461-32.520 146.742-32.203L146.742-32.203Q147.480-31.289 147.480-30.023L147.480-30.023L147.480-28.617Q147.410-27.949 147.340-27.422L147.340-27.422Q147.305-26.719 147.270-26.121L147.270-26.121L147.270-25.734Q147.270-24.469 147.480-23.625L147.480-23.625L147.480-22.500Q147.516-22.570 147.551-22.570L147.551-22.570L147.516-22.395L147.516-22.148L147.480-22.184L147.480-22.113L147.516-22.113L147.516-21.832L147.480-21.832L147.480-21.691Q147.445-21.375 147.445-21.059L147.445-21.059Q147.445-20.742 147.480-20.426L147.480-20.426L147.480-15.539Q147.375-15.188 147.375-14.695L147.375-14.695L147.375-14.414L147.445-13.816L147.480-13.219L147.480-10.090Q147.480-9.668 147.375-9.211L147.375-9.211ZM153.527-11.742L153.527-12.094Q153.527-12.270 153.492-12.410L153.492-12.410L153.457-12.656L153.457-13.184L153.422-13.219L153.422-13.676L153.457-13.852L153.457-15.785Q153.563-16.523 153.563-17.508L153.563-17.508L153.563-18.035L153.492-19.160L153.457-20.285L153.457-20.672L153.422-21.164L153.457-21.164L153.457-21.410Q153.527-21.797 153.527-22.113L153.527-22.113Q153.527-22.395 153.457-22.605L153.457-22.605L153.457-23.520Q153.492-23.625 153.492-23.836L153.492-23.836Q153.492-24.188 153.387-24.785L153.387-24.785Q153.422-24.891 153.457-24.926L153.457-24.926L153.457-25.594Q153.527-25.875 153.527-26.227L153.527-26.227L153.527-26.508L153.457-27.422L153.457-30.023Q153.457-30.832 153.316-31.641L153.316-31.641L153.316-31.781Q153.316-32.238 153.105-32.660L153.105-32.660L153-33.047L152.930-33.082L152.789-33.469L152.859-33.469Q152.684-33.891 152.473-34.383L152.473-34.383Q151.875-35.754 151.137-36.387L151.137-36.387Q150.855-36.738 150.574-37.055L150.574-37.055Q149.695-38.145 148.359-38.742L148.359-38.742L148.078-38.883L148.043-38.848L147.832-38.918L147.797-38.953Q147.797-38.988 147.832-39.023L147.832-39.023L147.164-39.305L147.129-39.270Q146.531-39.762 145.195-39.973L145.195-39.973Q144.527-40.078 143.965-40.078L143.965-40.078Q143.473-40.078 143.086-40.008L143.086-40.008L140.836-40.008Q140.238-40.184 139.324-40.184L139.324-40.184Q139.008-40.184 138.656-40.148L138.656-40.148L137.496-40.078Q136.793-40.008 136.406-40.008L136.406-40.008L136.371-40.008Q136.266-39.973 136.125-39.973L136.125-39.973Q136.125-40.008 135.035-40.008L135.035-40.008L135-40.008L134.930-39.938L134.648-39.938L134.543-39.902Q133.770-39.762 133.629-39.023L133.629-39.023Q133.523-38.777 133.523-38.496L133.523-38.496L133.523-38.109Q133.453-37.758 133.453-37.477L133.453-37.477Q133.453-37.195 133.523-36.984L133.523-36.984L133.523-36.668L133.629-36.703L133.664-36.352L133.523-36.387L133.523-34.875Q133.488-34.699 133.488-34.453L133.488-34.453L133.488-33.926L133.523-33.609L133.523-31.852Q133.453-31.535 133.453-31.184L133.453-31.184L133.523-30.480L133.523-30.023L133.488-29.461Q133.488-29.145 133.523-28.898L133.523-28.898L133.523-26.684Q133.383-26.332 133.383-25.523L133.383-25.523L133.383-24.961L133.453-24.504L133.488-24.012Q133.523-23.484 133.523-23.203L133.523-23.203L133.523-22.043L133.559-22.078L133.559-21.762L133.523-21.797L133.523-20.637Q133.453-19.969 133.418-19.441L133.418-19.441Q133.348-18.703 133.313-18.105L133.313-18.105L133.313-17.719Q133.313-16.418 133.523-15.539L133.523-15.539L133.523-13.570Q133.488-13.219 133.488-12.902L133.488-12.902Q133.488-12.551 133.523-12.234L133.523-12.234L133.523-10.301L133.594-10.195L133.594-10.055L133.523-9.984L133.523-7.242Q133.418-6.891 133.418-6.328L133.418-6.328L133.418-6.047L133.488-5.449L133.523-4.852L133.523-1.617L133.559-1.301L133.664-1.371Q133.664-1.160 133.699-0.984L133.699-0.984L133.805-0.809Q134.156-0.070 135.492 0L135.492 0Q135.949 0 136.582-0.035L136.582-0.035L137.074-0.105Q137.391-0.105 137.531-0.141L137.531-0.141L138.832-0.141L139.641-0.105L140.449-0.141L142.066-0.141Q142.559-0.070 143.016-0.070L143.016-0.070Q143.473-0.070 143.859-0.141L143.859-0.141Q145.617-0.211 147.234-0.844L147.234-0.844L147.270-0.949L147.480-1.055L147.516-0.984Q148.570-1.441 149.449-2.109L149.449-2.109L149.449-2.145Q149.449-2.215 149.520-2.250L149.520-2.250Q149.590-2.320 149.660-2.320L149.660-2.320Q149.695-2.320 149.695-2.285L149.695-2.285L149.941-2.496Q149.977-2.637 150.117-2.637L150.117-2.637L150.434-2.953L150.398-2.988L150.504-3.129L150.469-2.988Q150.785-3.305 151.066-3.621L151.066-3.621L151.031-3.691L151.242-3.973L151.313-3.902Q153.457-6.609 153.457-10.090L153.457-10.090L153.457-10.652Q153.563-10.934 153.563-11.355L153.563-11.355L153.527-11.742Z"></path><path d="M179.086-10.512L179.086-9.949Q179.086-9.457 179.051-8.965L179.051-8.965Q179.086-8.754 179.086-8.543L179.086-8.543Q179.086-8.121 178.875-7.699L178.875-7.699L178.734-7.207L178.734-7.102Q178.734-6.398 178.277-5.871L178.277-5.871Q177.961-5.098 177.504-4.395L177.504-4.395Q177.117-3.270 175.605-2.145L175.605-2.145Q175.008-1.617 174.410-1.230L174.410-1.230L174.340-1.301Q174.199-1.230 174.094-1.160L174.094-1.160L174.164-1.055L173.707-0.809Q173.285-0.387 172.441-0.105L172.441-0.105Q171.703 0.141 171 0.141L171 0.141Q170.508 0.246 170.016 0.281L170.016 0.281Q169.559 0.457 169.031 0.457L169.031 0.457Q168.469 0.457 167.836 0.246L167.836 0.246L167.520 0.176L167.555 0.141L167.344 0.105L167.344 0.141Q166.254-0.035 165.270-0.457L165.270-0.457L165.199-0.598L165.129-0.527Q164.602-0.738 164.109-1.055L164.109-1.055Q163.512-1.125 163.195-1.652L163.195-1.652L163.055-1.758L163.020-1.863L162.914-1.969Q162.879-2.004 162.844-2.004L162.844-2.004Q162.809-2.004 162.773-1.969L162.773-1.969Q161.578-2.953 160.805-4.043L160.805-4.043Q159.855-5.379 159.645-6.645L159.645-6.645L159.469-7.242Q159.363-7.629 159.328-7.910L159.328-7.910L159.328-8.121Q159.328-8.719 159.680-9.141L159.680-9.141Q159.855-9.598 160.418-9.598L160.418-9.598Q160.594-9.633 160.805-9.633L160.805-9.633L160.980-9.633L160.945-9.598L160.945-9.563Q161.121-9.563 161.297-9.598L161.297-9.598L161.227-9.633L162.246-9.633Q162.809-9.703 163.230-9.738L163.230-9.738Q163.793-9.738 164.145-9.598L164.145-9.598Q164.813-9.492 165.129-8.930L165.129-8.930Q165.551-8.438 165.621-7.770L165.621-7.770L165.656-7.734Q166.148-6.820 167.027-6.258L167.027-6.258Q167.730-5.941 168.750-5.695L168.750-5.695Q168.961-5.660 169.137-5.660L169.137-5.660Q171.246-5.660 172.793-8.156L172.793-8.156Q173.109-8.930 173.109-9.914L173.109-9.914Q173.109-10.301 173.074-10.723L173.074-10.723L172.898-11.496L172.723-12.305Q172.547-12.762 172.301-13.219L172.301-13.219Q171.914-13.605 171.703-14.133L171.703-14.133Q171.387-14.555 170.719-15.117L170.719-15.117L169.664-16.031L168.820-16.664L168.926-16.629L168.926-16.664Q166.605-17.824 165.305-19.125L165.305-19.125Q164.426-19.793 163.688-20.461L163.688-20.461Q163.266-20.707 162.984-21.094L162.984-21.094L162.141-22.043Q160.523-23.801 160.031-25.594L160.031-25.594L159.750-26.508L159.469-27.387Q159.223-28.266 159.223-28.969L159.223-28.969L159.223-29.285Q159.188-29.848 159.188-30.410L159.188-30.410Q159.152-30.762 159.152-31.078L159.152-31.078Q159.152-31.781 159.363-32.238L159.363-32.238Q159.504-32.836 159.680-33.469L159.680-33.469Q159.750-33.750 159.855-33.996L159.855-33.996Q160.488-35.613 161.543-36.914L161.543-36.914Q161.613-36.879 161.648-36.879L161.648-36.879Q161.684-36.879 161.719-36.914L161.719-36.914L161.859-37.090L161.754-37.125L162.211-37.652Q162.668-38.355 163.652-39.059L163.652-39.059Q164.672-39.762 165.480-39.832L165.480-39.832Q165.902-40.008 166.359-40.113L166.359-40.113Q166.781-40.430 167.273-40.430L167.273-40.430Q167.414-40.430 167.555-40.395L167.555-40.395Q168.117-40.500 168.715-40.535L168.715-40.535L168.820-40.430L168.996-40.430L169.031-40.535L169.453-40.535L169.664-40.500L170.156-40.500Q171.563-40.500 172.371-40.008L172.371-40.008Q172.828-39.832 173.320-39.621L173.320-39.621Q173.953-39.480 174.410-39.023L174.410-39.023L174.727-38.813Q176.273-37.969 177.609-35.789L177.609-35.789Q178.207-35.051 178.664-33.961L178.664-33.961Q179.051-33.047 179.051-32.414L179.051-32.414Q179.051-32.168 178.980-31.957L178.980-31.957Q178.945-31.535 178.664-31.254L178.664-31.254L178.418-31.008Q178.242-30.867 178.137-30.727L178.137-30.727Q177.820-30.586 177.469-30.586L177.469-30.586L176.871-30.586Q176.379-30.410 175.852-30.410L175.852-30.410Q175.359-30.410 174.832-30.586L174.832-30.586L174.375-30.586Q173.637-30.586 173.180-31.219L173.180-31.219Q172.898-31.430 172.652-32.098L172.652-32.098L172.477-32.625Q172.336-32.906 172.195-33.082L172.195-33.082Q171.914-33.434 171.457-33.750L171.457-33.750L171.035-33.996L170.613-34.277Q169.910-34.559 169.172-34.559L169.172-34.559Q168.926-34.559 168.645-34.523L168.645-34.523Q166.852-34.277 165.832-32.730L165.832-32.730Q165.375-31.816 165.164-30.094L165.164-30.094Q165.199-29.285 165.375-28.617L165.375-28.617Q165.516-28.230 165.621-27.809L165.621-27.809L165.727-27.492Q165.832-27.211 165.973-26.965L165.973-26.965Q166.219-26.543 166.535-26.086L166.535-26.086Q166.641-26.016 166.781-25.805L166.781-25.805L167.063-25.453Q167.414-25.031 167.660-24.926L167.660-24.926L168.293-24.398L168.258-24.328Q168.434-24.152 168.680-24.082L168.680-24.082L168.715-24.047Q169.313-23.906 169.629-23.379L169.629-23.379L170.719-22.641L171.844-21.867L172.125-21.621L172.160-21.656L172.898-21.129Q173.355-20.918 173.637-20.566L173.637-20.566Q174.727-19.688 175.535-18.844L175.535-18.844L175.746-18.633Q176.344-17.965 176.977-16.910L176.977-16.910L177.504-16.031L178.031-15.117Q178.910-13.184 179.051-10.828L179.051-10.828L179.016-10.828L179.086-10.512Z"></path><path d=""></path><path d="M235.090 7.910L235.020 8.016Q234.703 8.297 234.527 8.684L234.527 8.684Q233.789 9.598 232.699 10.477L232.699 10.477L231.680 11.285L230.625 12.023Q229.254 12.797 227.777 13.289L227.777 13.289L227.602 13.289Q227.215 13.289 226.828 13.535L226.828 13.535Q226.090 13.711 225.387 13.781L225.387 13.781L224.789 13.816L224.191 13.816Q223.418 13.816 222.996 13.887L222.996 13.887Q222.223 13.852 221.590 13.746L221.590 13.746L220.676 13.465L219.797 13.148Q218.707 12.797 217.969 12.656L217.969 12.656Q217.055 12.234 216.211 11.707L216.211 11.707Q215.965 11.391 215.578 11.250L215.578 11.250Q215.121 10.934 214.664 10.547L214.664 10.547Q214.418 10.090 213.926 9.879L213.926 9.879Q213.012 8.965 212.309 7.910L212.309 7.910L212.273 7.945L212.168 7.770L212.133 7.699Q211.922 7.277 211.641 6.891L211.641 6.891L211.359 6.398L211.324 6.398L211.254 6.293L211.324 6.363L211.184 6.012Q211.043 5.379 210.727 4.605L210.727 4.605L210.164 3.270L210.059 2.813L209.953 2.777Q209.883 2.531 209.883 2.285L209.883 2.285L209.918 2.250L209.848 1.793L209.813 1.020L209.707 0.246L209.707-3.094L209.602-3.023L209.602-3.621L209.637-3.621Q209.672-3.621 209.707-3.586L209.707-3.586L209.707-5.906Q209.848-6.398 209.883-7.418L209.883-7.418Q209.883-8.473 209.707-8.895L209.707-8.895L209.707-11.813Q209.813-12.270 209.813-12.867L209.813-12.867Q209.813-13.219 209.777-13.641L209.777-13.641L209.672-14.555Q209.602-15.082 209.602-15.469L209.602-15.469L209.672-15.539L209.707-15.504L209.707-17.297L209.672-17.332L209.672-17.543L209.707-17.543L209.707-18.598L209.742-19.125Q209.742-19.758 209.707-20.250L209.707-20.250L209.707-20.777L209.742-21.094L209.742-21.586Q209.742-21.797 209.707-21.973L209.707-21.973L209.707-22.992Q209.813-23.379 209.813-23.906L209.813-23.906L209.813-24.152L209.777-24.715L209.707-25.277L209.707-25.805L209.742-26.332L209.777-26.895Q209.777-27.492 209.707-27.949L209.707-27.949L209.707-29.988Q209.883-30.551 209.883-31.641L209.883-31.641L209.883-31.992Q209.883-33.258 209.707-33.996L209.707-33.996L209.707-36.035Q209.777-36.352 209.777-36.598L209.777-36.598Q209.777-36.879 209.707-37.055L209.707-37.055L209.707-38.250Q209.848-38.813 209.848-39.691L209.848-39.691L209.813-40.430L209.777-41.133L209.848-41.625L209.777-41.555L209.813-41.695L209.848-41.660L209.883-41.977Q210.129-42.434 210.129-42.961L210.129-42.961L210.129-43.172L210.375-44.016L210.340-44.086L210.445-44.367L210.516-44.438L210.727-44.930Q211.148-45.563 211.781-46.688L211.781-46.688L212.766-48.516Q213.539-49.500 214.418-50.309L214.418-50.309L214.348-50.379L214.523-50.520L214.594-50.449Q216.035-51.715 217.828-52.559L217.828-52.559L218.953-52.910L220.043-53.227Q221.273-53.578 222.328-53.684L222.328-53.684L223.207-53.719L224.086-53.684Q224.648-53.648 225.070-53.648L225.070-53.648Q225.527-53.648 225.809-53.684L225.809-53.684L225.984-53.648L225.949-53.684L226.230-53.719L226.301-53.613L226.266-53.613L227.180-53.402L227.883-53.191L228.621-52.945L229.535-52.453Q230.098-52.172 230.520-52.031L230.520-52.031Q231.047-51.750 231.539-51.398L231.539-51.398Q231.785-51.152 232.102-50.977L232.102-50.977L232.875-50.379L232.980-50.414L233.227-50.168L233.191-50.098L233.332-49.957L233.297-50.027L233.367-50.063L233.508-49.887L233.438-49.852Q234-49.289 234.773-48.059L234.773-48.059L235.371-47.145Q235.723-46.617 236.039-46.266L236.039-46.266Q236.320-45.738 236.602-45.105L236.602-45.105L236.848-43.910L237.094-42.680Q237.375-41.098 237.586-40.254L237.586-40.254L237.586-39.762Q237.586-39.059 237.516-38.355L237.516-38.355Q237.305-37.934 237.199-37.301L237.199-37.301Q237.129-36.844 237.094-36.211L237.094-36.211L236.883-35.473Q236.461-34.910 236.355-34.207L236.355-34.207Q235.934-33.223 235.336-32.273L235.336-32.273Q235.125-32.027 234.984-31.781L234.984-31.781L234.422-31.043Q230.766-27.633 228.199-26.719L228.199-26.719Q228.059-26.684 227.742-26.648L227.742-26.648L227.461-26.613L227.145-26.543Q226.266-26.438 225.738-26.297L225.738-26.297Q223.980-25.875 223.805-25.207L223.805-25.207L223.699-24.926L223.699-24.855L223.664-24.539L223.664-22.852Q223.629-22.676 223.629-22.500L223.629-22.500Q223.629-22.324 223.664-22.113L223.664-22.113L223.664-22.008Q223.699-21.832 223.699-21.691L223.699-21.691L223.664-21.727L223.664-21.551Q223.664-21.129 223.875-20.742L223.875-20.742Q224.191-20.109 224.859-20.004L224.859-20.004L225.105-20.004Q225.492-20.004 226.090-20.145L226.090-20.145Q228.023-20.391 229.852-20.953L229.852-20.953L229.816-21.023L230.063-21.129L230.168-21.094L230.941-21.375L230.906-21.445L231.117-21.516L231.152-21.445L230.977-21.375L231.645-21.656Q232.629-21.902 233.156-22.395L233.156-22.395L234.211-23.027Q234.703-23.203 235.090-23.590L235.090-23.590L235.441-23.871Q236.109-24.117 236.496-24.680L236.496-24.680L237.375-25.488L237.586-25.629L237.586-24.082Q237.445-23.695 237.445-23.098L237.445-23.098Q237.445-22.465 237.586-22.113L237.586-22.113L237.586-15.961Q237.516-15.785 237.516-15.504L237.516-15.504Q237.516-15.188 237.586-14.766L237.586-14.766L237.586-13.992L237.516-13.430L237.480-12.867L237.480-12.621Q237.480-12.129 237.586-11.777L237.586-11.777L237.586-11.496L237.656-11.461L237.586-11.426L237.586-10.898Q237.621-10.934 237.656-10.934L237.656-10.934Q237.691-10.934 237.691-10.863L237.691-10.863Q237.691-10.793 237.656-10.652L237.656-10.652L237.586-10.582L237.586-5.871Q237.480-5.238 237.480-4.676L237.480-4.676Q237.480-4.148 237.586-3.727L237.586-3.727L237.586-3.270L237.691-3.270L237.586-3.164L237.586-2.602Q237.375-1.969 237.375-0.738L237.375-0.738L237.375 1.195Q237.375 1.934 237.270 2.461L237.270 2.461Q237.059 3.551 236.531 4.887L236.531 4.887L236.039 6.047Q235.723 6.785 235.547 7.242L235.547 7.242L235.020 8.016L234.984 8.016L235.090 7.910ZM243.563-0.773L243.563-3.270L243.492-3.375L243.492-3.551L243.563-3.621L243.563-5.906L243.492-5.766L243.492-6.223L243.563-6.152L243.563-6.891Q243.668-7.348 243.668-7.770L243.668-7.770Q243.668-8.297 243.563-8.613L243.563-8.613L243.563-9.879Q243.633-10.090 243.633-10.371L243.633-10.371L243.563-10.898L243.563-11.602L243.633-11.883L243.668-12.199Q243.668-12.516 243.563-12.797L243.563-12.797L243.563-15.961Q243.703-16.348 243.738-16.945L243.738-16.945Q243.738-17.578 243.563-17.930L243.563-17.930L243.563-19.828L243.527-20.004L243.563-20.004L243.563-21.164L243.457-21.234L243.457-21.691L243.492-21.762L243.563-21.727L243.563-24.047Q243.668-24.223 243.668-24.539L243.668-24.539Q243.668-24.820 243.563-25.242L243.563-25.242L243.563-26.016L243.703-27.141L243.703-27.352Q243.703-27.844 243.563-28.230L243.563-28.230L243.563-31.395Q243.598-31.570 243.598-31.711L243.598-31.711Q243.598-31.887 243.563-32.063L243.563-32.063L243.563-34.102Q243.703-34.770 243.703-35.297L243.703-35.297Q243.703-35.824 243.563-36.246L243.563-36.246L243.563-37.371Q243.809-38.004 243.809-39.094L243.809-39.094Q243.809-39.445 243.773-39.867L243.773-39.867Q243.738-40.465 243.668-41.238L243.668-41.238L243.598-41.871L243.527-42.434Q243.352-43.840 243.035-45.035L243.035-45.035Q242.684-46.512 242.086-47.426L242.086-47.426L241.805-48.094L241.805-48.129Q241.699-48.621 241.383-49.008L241.383-49.008Q240.996-49.711 240.574-50.379L240.574-50.379Q239.520-52.277 238.465-53.227L238.465-53.227L238.219-53.473L238.219-53.438L237.867-53.789L237.902-53.824Q237.164-54.598 236.355-55.230L236.355-55.230L236.320-55.230Q236.004-55.863 235.301-56.004L235.301-56.004L235.336-56.039L234.352-56.707Q233.824-57.129 233.121-57.445L233.121-57.445Q232.453-57.797 231.820-58.078L231.820-58.078Q231.574-58.254 231.258-58.324L231.258-58.324Q230.484-58.641 229.746-58.887L229.746-58.887L229.641-58.816L229.465-58.887Q229.359-59.203 228.973-59.203L228.973-59.203Q228.867-59.203 228.727-59.168L228.727-59.168L228.691-59.168Q228.621-59.168 228.551-59.238L228.551-59.238L228.094-59.344Q227.215-59.660 226.371-59.660L226.371-59.660L226.195-59.660L225.844-59.730L225.914-59.660L225.773-59.660L225.809-59.730L225.246-59.766Q224.648-59.941 224.121-59.941L224.121-59.941Q223.699-59.941 223.277-59.836L223.277-59.836Q222.574-59.836 221.906-59.766L221.906-59.766Q221.590-59.801 221.309-59.801L221.309-59.801Q219.445-59.801 218.039-59.027L218.039-59.027L217.617-58.922L217.582-58.816L217.512-58.816L217.441-58.852Q216.879-58.676 216.211-58.395L216.211-58.395Q215.719-58.359 215.402-58.043L215.402-58.043L214.418-57.551Q213.820-57.480 213.434-56.988L213.434-56.988L213.293-56.918Q212.133-56.215 211.113-55.371L211.113-55.371Q210.656-55.125 210.340-54.738L210.340-54.738L210.305-54.703L209.988-54.352L209.988-54.387L209.707-54.105Q208.406-53.297 207.633-51.715L207.633-51.715L207-50.871L207.035-50.871Q206.262-49.992 205.945-49.078L205.945-49.078Q205.453-48.129 205.066-47.109L205.066-47.109Q204.996-46.934 204.926-46.723L204.926-46.723Q204.328-45.105 204.047-43.383L204.047-43.383Q203.766-42.820 203.660-41.906L203.660-41.906Q203.625-41.555 203.625-41.238L203.625-41.238Q203.625-40.711 203.730-40.395L203.730-40.395L203.730-37.441Q203.590-36.984 203.590-36.246L203.590-36.246L203.590-35.930Q203.590-35.051 203.730-34.418L203.730-34.418L203.730-32.063L203.766-32.063L203.730-31.359L203.730-28.371L203.695-28.055L203.660-27.773L203.660-27.598Q203.660-27.352 203.730-27.141L203.730-27.141L203.730-27.105Q203.801-26.930 203.801-26.648L203.801-26.648L203.730-26.578L203.730-26.121Q203.625-25.699 203.625-25.137L203.625-25.137L203.625-24.855L203.695-24.223L203.730-23.590L203.730-23.309L203.660-22.219L203.660-21.902Q203.660-21.445 203.730-21.094L203.730-21.094L203.730-20.109L203.801-20.109L203.801-19.898L203.730-19.863L203.730-19.020Q203.520-18.352 203.520-17.016L203.520-17.016Q203.520-15.750 203.730-14.977L203.730-14.977L203.730-14.730L203.766-14.766Q203.801-14.660 203.801-14.449L203.801-14.449L203.730-14.555L203.730-12.902Q203.660-12.586 203.660-12.340L203.660-12.340Q203.660-12.094 203.730-11.883L203.730-11.883L203.730-10.652Q203.555-9.984 203.555-9.246L203.555-9.246Q203.555-8.508 203.730-7.699L203.730-7.699L203.730-6.820Q203.660-6.504 203.660-6.188L203.660-6.188Q203.660-5.906 203.730-5.590L203.730-5.590L203.730-4.289L203.766-4.430L203.766-4.535Q203.801-4.395 203.801-4.219L203.801-4.219L203.730-4.219L203.730-3.656Q203.520-2.988 203.520-1.828L203.520-1.828L203.520-1.477Q203.555-0.914 203.625-0.281L203.625-0.281Q203.660 0.141 203.730 0.773L203.730 0.773Q203.801 2.074 204.012 3.340L204.012 3.340L204.082 3.234L204.152 3.656L204.082 3.691L204.082 3.762L204.152 3.656L204.223 4.008L204.117 3.867L204.188 4.184L204.258 4.254L204.258 4.324L204.223 4.359L204.328 4.816Q204.434 5.309 204.609 5.906L204.609 5.906L204.996 6.996Q205.559 8.930 206.754 10.934L206.754 10.934Q208.160 13.219 209.602 14.063L209.602 14.063L210.445 14.871Q210.656 15.082 210.973 15.363L210.973 15.363L211.570 15.785L212.027 16.172L212.520 16.559Q213.082 16.945 213.574 17.121L213.574 17.121L214.453 17.613Q214.805 17.930 215.227 18L215.227 18L216.176 18.422L216.176 18.316L216.492 18.457L216.527 18.563Q217.863 19.090 219.340 19.406L219.340 19.406L219.762 19.547L220.219 19.652Q220.535 19.758 220.852 19.758L220.852 19.758Q220.992 19.758 221.133 19.723L221.133 19.723L222.293 19.828Q223.383 20.109 224.438 20.109L224.438 20.109Q225.949 20.109 227.355 19.547L227.355 19.547L228.410 19.301L228.340 19.230Q228.516 19.125 228.727 19.125L228.727 19.125L228.832 19.195L229.113 19.125L229.184 19.125Q230.098 19.125 231.223 18.387L231.223 18.387L231.820 18.141Q232.453 17.965 233.367 17.438L233.367 17.438L234.105 16.945L234.457 16.699L234.773 16.488Q235.230 16.242 235.582 15.891L235.582 15.891L235.969 15.574Q238.641 13.816 240.926 9.879L240.926 9.879Q241.594 9.070 242.121 7.805L242.121 7.805Q242.719 6.469 242.789 5.520L242.789 5.520Q243 4.711 243.141 4.043L243.141 4.043Q243.105 4.043 243.035 3.973L243.035 3.973L243.070 3.832L243.176 3.727L243.211 3.762L243.281 3.305Q243.422 2.918 243.422 2.496L243.422 2.496L243.422 2.180L243.457 2.180L243.527 1.406Q243.633 0.773 243.633 0.176L243.633 0.176Q243.633-0.316 243.563-0.773L243.563-0.773Z"></path><path d="M267.504-36.527L267.504-36.035Q267.539-35.789 267.539-35.543L267.539-35.543Q267.539-34.805 267.117-34.348L267.117-34.348Q266.695-33.891 265.992-33.891L265.992-33.891Q265.746-33.891 265.465-33.926L265.465-33.926L263.426-33.926Q263.215-33.855 262.898-33.855L262.898-33.855Q262.582-33.855 262.160-33.926L262.160-33.926L261.457-33.926L261-33.891L260.473-33.820Q259.770-33.750 259.313-33.715L259.313-33.715L258.785-33.715Q257.766-33.715 257.238-33.926L257.238-33.926L256.535-33.926L256.535-28.301L256.570-27.914L256.570-27.246Q256.570-26.965 256.535-26.754L256.535-26.754L256.535-26.086L256.711-25.945L258.047-25.945L258.609-26.016Q258.926-26.016 259.207-25.945L259.207-25.945L260.262-25.945Q260.859-26.156 261.598-26.156L261.598-26.156Q262.020-26.156 262.477-26.086L262.477-26.086Q263.953-25.910 264.305-25.207L264.305-25.207Q264.516-24.855 264.516-24.469L264.516-24.469L264.516-24.258Q264.516-24.082 264.551-23.766L264.551-23.766L264.621-23.168Q264.656-22.781 264.656-22.465L264.656-22.465Q264.656-22.148 264.621-21.867L264.621-21.867Q264.551-20.320 263.566-20.074L263.566-20.074Q263.285-19.969 263.039-19.969L263.039-19.969L262.688-19.969L262.688-20.039L262.617-20.039L262.441-19.969L260.297-19.969Q260.086-19.863 259.805-19.863L259.805-19.863Q259.523-19.863 259.172-19.969L259.172-19.969Q258.996-20.039 258.820-20.039L258.820-20.039L258.750-19.969L258.117-19.969Q257.906-19.934 257.695-19.934L257.695-19.934Q257.484-19.934 257.273-19.969L257.273-19.969L256.676-19.969L256.535-19.828L256.535-16.488L256.500-16.559L256.500-16.242L256.535-16.277L256.535-14.344Q256.641-14.098 256.641-13.852L256.641-13.852Q256.641-13.605 256.535-13.324L256.535-13.324L256.535-9.809Q256.535-9.422 256.605-8.684L256.605-8.684L256.711-7.523L256.711-6.926Q256.711-5.906 256.535-5.238L256.535-5.238L256.535-4.113Q256.641-3.832 256.641-3.480L256.641-3.480L256.641-3.305L256.605-2.883L256.535-2.461L256.535-1.547Q256.535-1.090 256.289-0.703L256.289-0.703Q256.113-0.352 255.727-0.211L255.727-0.211Q255.410-0.035 255.059-0.035L255.059-0.035L252.422-0.035Q252.176 0 252 0L252 0Q250.945 0 250.664-1.055L250.664-1.055L250.629-1.195Q250.629-1.266 250.594-1.301L250.594-1.301L250.559-1.547L250.559-4.289Q250.383-5.273 250.383-6.293L250.383-6.293Q250.383-7.348 250.559-8.402L250.559-8.402L250.559-9.035Q250.488-9.492 250.488-9.773L250.488-9.773Q250.488-10.090 250.559-10.266L250.559-10.266L250.559-11.250Q250.488-11.496 250.488-11.777L250.488-11.777Q250.488-12.094 250.559-12.410L250.559-12.410L250.559-14.309Q250.453-14.590 250.453-14.871L250.453-14.871Q250.453-15.152 250.559-15.398L250.559-15.398L250.559-16.383Q250.383-16.840 250.383-17.895L250.383-17.895Q250.383-18.984 250.559-19.477L250.559-19.477L250.559-20.707Q250.523-21.270 250.523-21.727L250.523-21.727Q250.523-22.184 250.559-22.570L250.559-22.570L250.559-26.648Q250.453-26.895 250.453-27.141L250.453-27.141Q250.453-27.387 250.559-27.633L250.559-27.633L250.559-28.723Q250.488-28.934 250.488-29.215L250.488-29.215Q250.488-29.461 250.559-29.777L250.559-29.777L250.559-31.887Q250.523-32.133 250.523-32.344L250.523-32.344Q250.523-32.590 250.559-32.836L250.559-32.836L250.559-36.738Q250.488-37.160 250.453-37.547L250.453-37.547L250.453-37.898Q250.453-38.250 250.488-38.531L250.488-38.531Q250.664-39.656 251.508-39.797L251.508-39.797Q251.789-39.902 252.070-39.902L252.070-39.902L253.582-39.902Q253.828-40.008 254.074-40.008L254.074-40.008Q254.355-40.008 254.602-39.902L254.602-39.902L255.410-39.902L255.480-39.832L255.551-39.832Q255.621-39.832 255.691-39.902L255.691-39.902L259.383-39.902Q259.770-39.973 260.086-39.973L260.086-39.973Q260.367-39.973 260.578-39.902L260.578-39.902L263.813-39.902L264.129-39.938L264.445-39.973L265.148-40.008L265.395-40.008Q266.098-40.008 266.484-39.832L266.484-39.832L266.766-39.691L266.766-39.656L267.012-39.445L267.047-39.480Q267.293-39.270 267.398-38.953L267.398-38.953Q267.539-38.637 267.539-38.320L267.539-38.320Q267.539-38.180 267.504-38.004L267.504-38.004L267.504-36.738L267.469-36.668L267.469-36.598L267.504-36.527Z"></path><path d=""></path><path d="M349.594-11.707Q349.594-11.918 349.559-12.059L349.559-12.059L349.523-12.199L349.488-12.340L349.488-13.184Q349.664-13.957 349.664-15.188L349.664-15.188Q349.629-16.277 349.488-17.191L349.488-17.191L349.488-17.684L349.418-17.613L349.418-18.035L349.488-17.965L349.488-18.387Q349.594-19.090 349.594-20.004L349.594-20.004L349.594-20.461L349.559-21.480L349.488-22.500L349.488-23.238L349.453-23.449L349.488-23.555L349.488-24.434Q349.559-24.891 349.559-25.418L349.559-25.418Q349.559-25.945 349.488-26.508L349.488-26.508L349.488-27.211Q349.594-27.703 349.594-28.230L349.594-28.230Q349.594-28.758 349.488-29.320L349.488-29.320L349.488-29.777L349.418-29.813L349.418-30.059L349.488-30.094L349.488-31.430L349.453-31.395L349.453-31.570L349.488-31.781L349.488-32.238Q349.594-33.047 349.594-33.680L349.594-33.680Q349.594-34.277 349.488-34.699L349.488-34.699L349.488-35.438L349.453-35.473L349.418-36.105L349.488-36.105L349.488-36.457L349.418-36.563L349.418-36.738L349.488-36.809L349.488-37.617Q349.559-37.863 349.559-38.074L349.559-38.074Q349.559-38.320 349.488-38.531L349.488-38.531L349.488-39.551L349.453-39.586Q349.523-39.867 349.523-40.148L349.523-40.148Q349.523-40.359 349.488-40.570L349.488-40.570L349.488-44.824L349.523-45.141L349.559-45.492L349.629-46.301L349.629-46.617Q349.629-47.320 349.488-47.707L349.488-47.707L349.488-48.762Q349.594-49.043 349.594-49.500L349.594-49.500L349.594-49.746L349.559-50.238L349.488-50.730L349.488-52.840Q349.594-53.051 349.594-53.297L349.594-53.297Q349.594-53.578 349.488-53.859L349.488-53.859L349.488-55.266L349.453-55.266L349.488-55.547L349.488-55.652Q349.629-56.391 349.629-57.234L349.629-57.234L349.629-57.551Q349.629-58.395 349.453-58.781L349.453-58.781Q349.207-59.590 348.363-59.836L348.363-59.836Q348.152-59.906 347.906-59.906L347.906-59.906Q347.766-59.906 347.590-59.871L347.590-59.871L345.762-59.871L345.762-59.836L345.691-59.871L345.023-59.871L345.094-59.801L344.672-59.801L344.707-59.836L344.461-59.766Q343.617-59.660 343.512-58.605L343.512-58.605L343.512-58.113L343.477-57.516Q343.477-57.164 343.512-56.883L343.512-56.883L343.512-55.934Q343.441-55.617 343.441-55.301L343.441-55.301Q343.441-55.020 343.512-54.738L343.512-54.738L343.512-53.789Q343.371-53.227 343.371-52.242L343.371-52.242Q343.371-51.293 343.512-50.695L343.512-50.695L343.512-47.637Q343.441-47.426 343.441-47.180L343.441-47.180Q343.441-46.863 343.582-46.477L343.582-46.477L343.512-46.406L343.512-45.457L343.547-45.387L343.512-45.281L343.512-43.664Q343.477-43.453 343.477-43.102L343.477-43.102Q343.477-42.750 343.512-42.258L343.512-42.258L343.512-41.660Q343.477-41.238 343.477-40.746L343.477-40.746Q343.477-40.289 343.512-39.727L343.512-39.727L343.512-38.813L343.582-38.813L343.512-38.215L343.441-37.652L343.441-37.336Q343.441-36.844 343.512-36.457L343.512-36.457L343.512-35.191Q343.301-34.102 343.301-33.082L343.301-33.082Q343.301-32.098 343.512-31.148L343.512-31.148L343.512-29.566L343.582-29.531L343.512-29.461L343.512-29.145Q343.301-28.371 343.301-27.105L343.301-27.105L343.301-26.473Q343.336-25.840 343.406-25.031L343.406-25.031L343.441-24.363L343.512-23.730L343.512-22.008L343.477-21.762Q343.477-21.445 343.512-21.270L343.512-21.270L343.512-20.461L343.301-21.164Q343.301-21.480 343.125-21.762L343.125-21.762L342.633-23.379L342.563-23.273L342.492-23.484L342.598-23.520L342.281-24.504Q342.176-25.102 341.930-25.770L341.930-25.770L341.719-26.367L341.473-27L341.543-27.070L341.473-27.281L341.367-27.387L341.297-28.020Q341.227-28.371 341.051-28.652L341.051-28.652L340.980-28.898L340.910-28.934L340.805-29.250L340.875-29.285L340.207-31.500Q340.137-32.520 339.645-33.363L339.645-33.363L339.363-34.313Q339.363-34.840 339.047-35.367L339.047-35.367L338.871-35.930L338.836-35.859Q338.801-36.035 338.801-36.211L338.801-36.211Q338.766-36.844 338.484-37.195L338.484-37.195L338.098-38.461Q338.063-38.672 337.992-38.883L337.992-38.883L337.746-39.727L337.641-39.727Q337.605-39.867 337.570-40.043L337.570-40.043L337.535-40.148L337.500-40.289L337.535-40.359L337.043-42.082L336.973-42.082Q336.832-42.258 336.832-42.363L336.832-42.363Q336.832-42.434 336.867-42.504L336.867-42.504L336.797-42.645L336.762-42.750L336.727-42.891L336.727-43.031L336.199-44.824L336.199-44.930Q336.199-45.387 335.848-45.984L335.848-45.984L335.320-47.742Q335.320-48.305 335.004-48.762L335.004-48.762L334.758-49.605L334.758-49.711Q334.758-50.555 334.266-51.996L334.266-51.996L333.809-53.227L333.563-53.824L333.457-54.070L333.352-54.316L333.035-55.406Q333.035-55.969 332.719-56.461L332.719-56.461L332.367-57.656L332.332-57.691L332.227-58.043L332.227-58.078L332.016-58.816Q331.699-59.871 330.574-59.871L330.574-59.871L329.203-59.871Q329.027-59.941 328.781-59.941L328.781-59.941Q328.535-59.941 328.254-59.871L328.254-59.871L326.953-59.871Q326.109-59.871 325.652-59.133L325.652-59.133Q325.336-58.816 325.336-58.430L325.336-58.430Q325.336-58.254 325.371-58.078L325.371-58.078Q325.230-57.551 325.090-57.129L325.090-57.129Q324.879-56.777 324.633-56.320L324.633-56.320L324.211-55.441Q323.789-54.809 323.227-54.246L323.227-54.246L323.016-54.035Q322.699-53.754 322.383-53.508L322.383-53.508L322.383-53.473Q322.383-53.438 322.348-53.402L322.348-53.402L322.102-53.227L321.996-53.262Q321.609-52.980 321.117-52.734L321.117-52.734Q320.730-52.629 320.027-52.383L320.027-52.383L319.465-52.172L318.938-52.031L318.270-51.926L316.934-51.926Q315.703-52.031 314.578-52.488L314.578-52.488Q314.051-52.875 313.453-53.051L313.453-53.051Q312.891-53.508 312.223-53.684L312.223-53.684L312.293-53.613Q312.152-53.648 311.977-53.648L311.977-53.648L312.012-53.684Q311.590-53.684 311.238-53.473L311.238-53.473Q310.957-53.297 310.746-53.016L310.746-53.016L309.938-52.207Q308.566-51.258 308.566-50.203L308.566-50.203Q308.566-49.641 308.988-49.043L308.988-49.043Q309.938-47.602 312.258-47.004L312.258-47.004L312.820-46.758Q313.980-46.160 314.859-46.160L314.859-46.160L315.035-46.160L315.984-46.020Q316.547-45.773 317.426-45.773L317.426-45.773Q317.777-45.773 318.164-45.809L318.164-45.809Q319.289-45.879 320.344-46.195L320.344-46.195L321.117-46.371Q321.750-46.406 322.242-46.723L322.242-46.723Q322.910-46.969 323.473-47.215L323.473-47.215Q323.895-47.355 324.281-47.637L324.281-47.637L324.984-48.059L325.195-48.199L325.582-48.445L325.582-46.969Q325.477-46.547 325.477-45.949L325.477-45.949L325.477-45.633L325.547-44.965L325.582-44.297L325.582-42.820Q325.547-42.609 325.547-42.398L325.547-42.398Q325.547-42.188 325.582-41.977L325.582-41.977L325.582-41.730L325.652-41.695L325.652-41.484L325.582-41.414L325.582-36.914Q325.547-36.633 325.547-36.352L325.547-36.352Q325.547-36.105 325.582-35.859L325.582-35.859L325.582-33.926Q325.512-33.645 325.512-33.363L325.512-33.363Q325.512-33.047 325.582-32.730L325.582-32.730L325.582-31.887Q325.547-31.570 325.547-31.324L325.547-31.324Q325.547-31.078 325.582-30.902L325.582-30.902L325.582-30.305L325.688-30.270L325.688-30.129L325.582-30.059L325.582-28.934Q325.512-28.547 325.512-28.055L325.512-28.055L325.512-27.703L325.547-27.070L325.617-26.438L325.582-26.438L325.582-25.734Q325.547-25.418 325.547-24.996L325.547-24.996Q325.547-24.574 325.582-24.012L325.582-24.012L325.582-19.688L325.652-19.688L325.582-19.617L325.582-17.824Q325.512-17.508 325.512-17.227L325.512-17.227Q325.512-16.945 325.582-16.699L325.582-16.699L325.582-14.695Q325.512-14.449 325.512-14.203L325.512-14.203Q325.512-13.957 325.582-13.676L325.582-13.676L325.582-11.672Q325.512-11.426 325.512-11.145L325.512-11.145Q325.512-10.898 325.582-10.652L325.582-10.652L325.582-9.773Q325.477-9.422 325.477-9.141L325.477-9.141Q325.477-8.859 325.582-8.648L325.582-8.648L325.582-5.766Q325.512-5.414 325.512-5.098L325.512-5.098Q325.512-4.816 325.582-4.605L325.582-4.605L325.582-3.797L325.652-3.797L325.617-2.988L325.582-2.918L325.582-2.707Q325.512-2.391 325.512-2.109L325.512-2.109Q325.512-1.863 325.582-1.652L325.582-1.652L325.582-0.563Q325.547-0.316 325.547-0.070L325.547-0.070Q325.547 0.141 325.582 0.387L325.582 0.387L325.547 0.844L325.582 0.809L325.582 1.160L325.512 1.090L325.477 1.512L325.582 1.512Q325.582 1.863 325.512 2.180L325.512 2.180L325.406 2.145Q325.125 3.832 324.457 5.379L324.457 5.379L324.457 5.414Q324.457 5.484 324.387 5.520L324.387 5.520Q323.508 7.559 321.996 9.211L321.996 9.211Q322.031 9.246 322.031 9.281L322.031 9.281Q322.031 9.316 321.996 9.352L321.996 9.352L321.820 9.492L321.785 9.457L321.188 10.055L320.730 10.406L320.309 10.723Q319.746 11.145 319.430 11.461L319.430 11.461L318.867 11.848L317.918 12.199L316.934 12.586Q315.738 13.043 315.070 13.430L315.070 13.430Q313.348 13.852 311.590 13.852L311.590 13.852Q310.781 13.852 310.008 13.781L310.008 13.781L309.938 13.852L309.762 13.852L309.656 13.781L309.691 13.746L308.918 13.605Q307.969 13.219 307.230 13.148L307.230 13.148Q306.246 12.832 305.262 12.340L305.262 12.340Q304.945 11.883 304.383 11.848L304.383 11.848L303.961 11.566L303.434 11.180Q303.188 10.898 302.836 10.723L302.836 10.723Q302.379 10.336 301.922 9.914L301.922 9.914Q300.797 8.367 299.531 6.855L299.531 6.855Q299.250 6.398 299.039 5.906L299.039 5.906Q298.898 5.309 298.582 4.535L298.582 4.535L298.336 3.832L298.055 3.199Q297.914 2.637 297.844 2.039L297.844 2.039Q297.879 1.758 297.879 1.406L297.879 1.406Q297.879 0.879 297.809 0.176L297.809 0.176L297.773-0.773L297.773-1.723Q297.879-2.777 298.160-3.797L298.160-3.797Q298.512-4.324 298.547-4.957L298.547-4.957L298.934-5.871Q299.391-6.363 299.531-7.031L299.531-7.031L299.953-7.734L299.883-7.734L300.059-8.051L300.164-8.016L300.586-8.613Q300.797-8.789 301.043-9.105L301.043-9.105L301.289-9.387L301.500-9.668Q302.273-10.477 303.188-11.180L303.188-11.180Q303.855-11.391 304.313-11.953L304.313-11.953Q304.770-12.234 305.297-12.516L305.297-12.516L306.844-13.148Q307.723-13.500 308.426-13.676L308.426-13.676L308.391-13.676L308.988-13.816L308.988-13.781Q310.324-14.027 311.660-14.027L311.660-14.027Q313.066-14.027 314.508-13.746L314.508-13.746L314.543-13.746L314.543-13.852L314.859-13.781L314.824-13.676L315.563-13.465L315.633-13.570L315.879-13.500L315.809-13.430Q316.055-13.324 316.301-13.324L316.301-13.324Q316.723-13.324 317.109-13.605L317.109-13.605Q317.637-13.922 317.813-14.941L317.813-14.941L317.883-14.906L318.340-15.996L318.410-16.172L318.762-17.016Q318.902-17.367 318.902-17.648L318.902-17.648Q318.902-18.211 318.410-18.703L318.410-18.703Q318.023-19.230 316.617-19.547L316.617-19.547Q316.090-19.652 315.457-19.723L315.457-19.723L314.965-19.758L314.754-19.793L314.578-19.793Q313.172-20.004 311.730-20.004L311.730-20.004Q311.449-20.074 311.203-20.074L311.203-20.074Q310.887-20.074 310.570-19.969L310.570-19.969Q309.586-19.934 308.602-19.793L308.602-19.793L308.461-19.793Q308.039-19.793 307.688-19.617L307.688-19.617Q306.984-19.477 306.281-19.266L306.281-19.266Q303.750-18.738 301.219-17.332L301.219-17.332Q298.336-15.715 297.211-13.816L297.211-13.816L297.035-13.641L297.105-13.605L296.789-13.219L296.719-13.289Q296.121-12.621 295.594-11.918L295.594-11.918L295.629-11.883L295.488-11.637L295.453-11.707Q295.031-11.109 294.574-10.336L294.574-10.336Q293.906-9.457 293.730-8.789L293.730-8.789L293.520-8.402L293.555-8.332L293.484-8.227L293.379-8.121L293.344-8.016Q292.957-7.559 292.922-6.996L292.922-6.996Q292.500-5.836 292.219-4.676L292.219-4.676L292.113-4.184L292.008-3.727Q291.902-3.199 291.867-2.777L291.867-2.777Q291.691-1.477 291.691-0.141L291.691-0.141Q291.691 1.055 291.832 2.250L291.832 2.250L291.867 2.742L291.867 3.199Q291.938 3.727 292.148 4.078L292.148 4.078L292.219 4.465L292.324 4.535L292.359 4.711L292.289 4.746Q292.465 5.414 292.711 6.223L292.711 6.223Q292.816 6.574 292.957 6.855L292.957 6.855Q293.273 7.734 293.660 8.543L293.660 8.543Q294.891 11.813 298.688 15.047L298.688 15.047Q300.023 16.348 301.359 16.980L301.359 16.980Q302.203 17.473 303.117 17.930L303.117 17.930L304.031 18.422Q304.629 18.703 305.051 18.738L305.051 18.738L305.754 18.949L305.719 18.844L306.035 19.020L306 19.020L306.070 19.055Q306.527 19.406 307.090 19.406L307.090 19.406Q307.266 19.406 307.406 19.371L307.406 19.371L307.758 19.441Q308.777 19.793 309.938 19.934L309.938 19.934Q310.465 20.004 310.922 20.004L310.922 20.004Q311.660 20.004 312.152 19.828L312.152 19.828L313.242 19.793L313.559 19.793Q314.086 19.793 314.824 19.652L314.824 19.652L315.633 19.441L316.020 19.371L316.371 19.266Q316.617 19.230 316.863 19.160L316.863 19.160L317.707 18.879L317.672 18.879L317.672 18.844L318.305 18.563L318.305 18.703Q319.184 18.387 320.027 17.965L320.027 17.965L320.027 17.930L320.484 17.719L320.520 17.754Q321.469 17.262 322.383 16.664L322.383 16.664Q323.719 15.926 324.422 15.117L324.422 15.117L324.457 15.152Q325.863 13.957 327.059 12.480L327.059 12.480Q327.586 12.129 327.832 11.496L327.832 11.496Q328.922 9.949 329.730 8.227L329.730 8.227Q330.188 7.734 330.223 7.031L330.223 7.031L330.363 6.680Q331.031 5.344 331.031 4.500L331.031 4.500L331.242 3.340Q331.699 2.250 331.805 0.352L331.805 0.352L331.805-0.316Q331.805-1.793 331.559-2.707L331.559-2.707L331.559-3.129L331.488-3.094L331.488-3.445L331.559-3.445L331.559-6.715Q331.594-6.891 331.594-7.102L331.594-7.102L331.594-7.313L331.559-7.875L331.559-9.668Q331.629-9.914 331.629-10.160L331.629-10.160Q331.629-10.406 331.559-10.617L331.559-10.617L331.559-11.883Q331.594-12.059 331.594-12.234L331.594-12.234Q331.594-12.445 331.559-12.621L331.559-12.621L331.559-13.148L331.488-13.219L331.488-13.430L331.559-13.500L331.559-13.711L331.523-13.641L331.523-13.711L331.559-13.711L331.559-16.207L331.594-16.699L331.594-17.051Q331.594-17.402 331.559-17.648L331.559-17.648L331.559-17.719L331.523-17.719L331.523-17.824L331.559-17.895L331.559-20.813Q331.840-22.289 331.840-24.293L331.840-24.293L331.840-24.715Q331.840-26.613 331.559-27.773L331.559-27.773L331.559-29.074Q331.770-30.234 331.770-31.465L331.770-31.465Q331.770-32.695 331.559-33.996L331.559-33.996L331.559-34.172L331.523-34.172L331.523-34.488L331.559-34.453L331.559-34.840Q331.629-35.156 331.629-35.473L331.629-35.473Q331.629-35.789 331.559-36.070L331.559-36.070L331.559-37.758L331.594-38.109L331.594-38.355Q331.594-38.566 331.559-38.707L331.559-38.707L331.559-39.129Q331.418-39.234 331.348-39.375L331.348-39.375Q331.453-39.516 331.594-39.551L331.594-39.551L331.629-39.270L331.945-38.145Q331.980-37.828 332.086-37.477L332.086-37.477L332.227-37.160L332.367-36.809L333.422-33.328L333.422-33.398L333.492-33.188L333.457-33.223L334.125-31.008L334.230-30.938L334.266-30.832L334.195-30.762L334.266-30.410L334.266-30.305Q334.266-29.848 334.582-29.391L334.582-29.391L335.109-27.633L335.215-27.703L335.215-27.527L335.109-27.633L336.199-23.977L336.305-23.977L336.340-23.766L336.270-23.766L336.340-23.590Q336.375-23.168 336.551-22.816L336.551-22.816L336.973-21.480Q337.465-19.406 337.781-18.246L337.781-18.246Q338.309-16.383 338.906-15.047L338.906-15.047L339.504-13.043Q339.539-12.691 339.715-12.340L339.715-12.340L340.629-9.281L340.629-9.070Q340.629-8.191 341.191-7.418L341.191-7.418L341.508-6.293Q341.543-5.941 341.719-5.484L341.719-5.484L341.859-5.063L342-4.676L342.527-2.953L342.703-2.707L342.738-2.566L342.809-2.426L342.809-2.391L342.703-2.391L342.984-1.406Q343.160-0.035 344.918-0.035L344.918-0.035Q345.129-0.035 345.410-0.070L345.410-0.070L345.867-0.070L345.973-0.105Q345.973-0.070 346.359-0.070L346.359-0.070L346.641-0.070L346.922-0.035L347.484 0Q348.188 0 348.574-0.211L348.574-0.211Q349.102-0.422 349.348-0.949L349.348-0.949Q349.629-1.406 349.629-2.426L349.629-2.426Q349.629-2.813 349.559-3.270L349.559-3.270Q349.559-3.551 349.488-3.938L349.488-3.938L349.488-4.500L349.453-4.535L349.418-4.535L349.418-4.816L349.488-4.746L349.488-6.363L349.383-6.328L349.383-6.891L349.488-6.891L349.488-7.348Q349.523-7.523 349.523-7.664L349.523-7.664Q349.523-7.840 349.488-7.980L349.488-7.980L349.488-9.211Q349.559-9.492 349.559-9.914L349.559-9.914L349.523-10.230L349.488-10.582L349.488-10.758Q349.488-10.898 349.523-11.039L349.523-11.039L349.559-11.215Q349.594-11.461 349.594-11.707L349.594-11.707Z"></path><path d="M370.020-8.613Q369.844-7.945 369.316-7.066L369.316-7.066Q368.965-6.645 368.543-6.363L368.543-6.363Q367.840-5.941 366.820-5.695L366.820-5.695Q366.504-5.660 366.188-5.660L366.188-5.660Q364.957-5.660 363.902-6.434L363.902-6.434Q363.234-7.242 362.320-9.105L362.320-9.105L362.285-9.633L362.285-10.230Q362.391-10.617 362.391-11.145L362.391-11.145Q362.391-11.707 362.285-12.059L362.285-12.059L362.285-12.305L362.250-12.340L362.285-12.340L362.285-13.254Q362.426-13.816 362.426-14.730L362.426-14.730L362.426-15.047Q362.426-15.785 362.285-16.137L362.285-16.137L362.285-18.246L362.250-18.211L362.250-18.387L362.285-18.352L362.285-19.160Q362.426-19.898 362.426-20.637L362.426-20.637L362.426-20.918Q362.426-21.621 362.285-22.078L362.285-22.078L362.285-22.113L362.250-22.219L362.285-22.148L362.285-24.082Q362.391-24.328 362.391-24.574L362.391-24.574Q362.391-24.820 362.285-25.066L362.285-25.066L362.285-26.262L362.215-26.227L362.215-26.402L362.285-26.332L362.285-27.141L362.250-27.141Q362.285-27.387 362.285-27.598L362.285-27.598L362.285-29.039Q362.355-29.285 362.355-29.566L362.355-29.566Q362.355-29.848 362.285-30.129L362.285-30.129L362.285-30.551Q362.285-32.449 363.762-33.645L363.762-33.645Q364.289-33.855 364.711-34.242L364.711-34.242Q365.238-34.453 365.801-34.523L365.801-34.523Q366.152-34.453 366.469-34.453L366.469-34.453Q366.680-34.453 366.891-34.488L366.891-34.488Q369.105-34.137 369.949-32.098L369.949-32.098L370.055-31.570L370.090-31.008Q370.195-30.305 370.266-29.953L370.266-29.953L370.266-29.074Q370.230-28.863 370.230-28.617L370.230-28.617Q370.230-28.406 370.266-28.195L370.266-28.195L370.266-26.086Q370.230-25.840 370.230-25.559L370.230-25.559Q370.230-25.313 370.266-25.031L370.266-25.031L370.266-23.906L370.336-23.977Q370.406-23.730 370.406-23.625L370.406-23.625Q370.406-23.555 370.371-23.555L370.371-23.555Q370.336-23.555 370.266-23.625L370.266-23.625L370.266-23.238Q370.266-23.273 370.336-23.344L370.336-23.344L370.336-23.063Q370.266-23.133 370.266-23.168L370.266-23.168L370.266-21.059Q370.195-20.813 370.195-20.566L370.195-20.566Q370.195-20.320 370.266-20.074L370.266-20.074L370.266-19.020Q370.230-18.809 370.230-18.598L370.230-18.598Q370.230-18.422 370.266-18.211L370.266-18.211L370.266-15.117Q370.125-14.695 370.125-13.957L370.125-13.957L370.125-13.676L370.195-12.902Q370.266-12.410 370.266-12.199L370.266-12.199L370.266-9.527Q370.230-9.352 370.160-9.070L370.160-9.070L370.020-8.613L370.020-8.719Q370.055-8.719 370.055-8.684L370.055-8.684L370.020-8.613ZM376.313-15.609L376.348-15.996L376.348-16.383Q376.348-16.840 376.242-17.121L376.242-17.121L376.242-18.141Q376.313-18.316 376.313-18.563L376.313-18.563L376.313-18.738L376.277-19.020L376.242-19.336L376.242-19.828Q376.313-20.320 376.313-20.672L376.313-20.672Q376.313-21.023 376.242-21.199L376.242-21.199L376.242-21.797L376.207-21.797L376.207-22.148L376.242-22.148L376.242-22.395L376.313-23.730L376.313-24.117Q376.313-24.680 376.242-25.031L376.242-25.031L376.242-28.652L376.137-28.477L376.137-28.969L376.242-28.934L376.242-30.551Q376.242-32.941 375.152-35.051L375.152-35.051Q374.801-36.211 373.922-36.949L373.922-36.949L373.359-37.547Q373.113-37.969 372.656-38.215L372.656-38.215Q372.270-38.531 371.918-38.777L371.918-38.777Q371.777-38.813 371.742-38.883L371.742-38.883Q371.320-39.164 370.828-39.410L370.828-39.410Q370.371-39.797 369.773-39.902L369.773-39.902Q368.824-40.254 367.875-40.395L367.875-40.395L367.875-40.324L367.629-40.324Q367.594-40.395 367.594-40.430L367.594-40.430Q366.961-40.535 366.328-40.535L366.328-40.535Q366.012-40.535 365.695-40.500L365.695-40.500Q365.520-40.535 365.379-40.535L365.379-40.535Q365.027-40.535 364.676-40.395L364.676-40.395Q364.113-40.289 363.621-40.148L363.621-40.148Q363.199-40.148 362.848-39.902L362.848-39.902Q361.301-39.340 360.035-38.320L360.035-38.320Q359.438-38.039 358.875-37.371L358.875-37.371Q358.664-37.090 358.418-36.738L358.418-36.738L357.996-36.105Q357.469-35.297 357.082-34.383L357.082-34.383L357.082-34.348L356.941-33.996L356.766-33.539Q356.273-32.273 356.273-31.289L356.273-31.289Q356.273-31.078 356.309-30.867L356.309-30.867L356.309-29.918Q356.273-29.320 356.273-28.863L356.273-28.863Q356.273-28.406 356.309-28.055L356.309-28.055L356.309-25.980L356.379-25.840L356.379-25.453L356.309-25.418L356.309-25.102Q356.133-24.609 356.133-23.590L356.133-23.590Q356.133-22.500 356.309-22.078L356.309-22.078L356.309-20.918Q356.203-20.531 356.203-20.039L356.203-20.039Q356.203-19.512 356.309-19.160L356.309-19.160L356.309-18.738L356.344-18.738L356.309-18.703L356.309-17.965Q356.168-17.332 356.168-16.523L356.168-16.523L356.168-16.207Q356.168-15.434 356.309-15.117L356.309-15.117L356.309-14.660L356.414-14.590Q356.414-14.379 356.379-14.238L356.379-14.238L356.309-14.203L356.309-12.516L356.344-12.621L356.344-12.410L356.309-12.445L356.309-12.094Q356.168-11.250 356.168-10.512L356.168-10.512Q356.168-9.703 356.344-9.070L356.344-9.070L356.379-8.438L356.449-8.543L356.555-7.840L356.449-7.910L356.625-7.102L356.625-6.996Q356.625-6.469 356.977-6.047L356.977-6.047Q357.223-5.414 357.504-4.887L357.504-4.887L357.645-4.816L357.645-4.781L357.609-4.711L358.066-4.008Q358.207-3.762 358.418-3.516L358.418-3.516Q358.770-3.059 359.191-2.637L359.191-2.637Q359.543-2.109 360.105-1.828L360.105-1.828Q361.652-0.598 363.586-0.035L363.586-0.035Q364.043 0.211 364.535 0.211L364.535 0.211Q364.676 0.211 364.852 0.176L364.852 0.176L364.781 0.211Q365.203 0.281 365.801 0.316L365.801 0.316Q366.188 0.457 366.750 0.457L366.750 0.457Q367.031 0.457 367.348 0.422L367.348 0.422Q368.297 0.316 368.859 0L368.859 0L368.895-0.035L369.141-0.176L369.176-0.105Q370.406-0.492 371.531-1.160L371.531-1.160Q372.410-1.547 373.359-2.391L373.359-2.391Q374.344-3.340 374.590-4.184L374.590-4.184Q375.609-5.695 375.996-7.453L375.996-7.453L376.031-7.629Q376.137-8.156 376.172-8.613L376.172-8.613L376.066-8.473Q376.066-8.719 376.137-8.930L376.137-8.930L376.207-8.859L376.242-9.176Q376.523-10.020 376.523-11.426L376.523-11.426Q376.523-11.848 376.488-12.340L376.488-12.340L376.453-13.219L376.383-14.063Q376.313-15.082 376.313-15.609L376.313-15.609Z"></path><path d="M399.305-37.723L399.305-36.809Q399.340-36.598 399.340-36.352L399.340-36.352Q399.340-36.141 399.305-35.895L399.305-35.895L399.305-35.438Q399.305-34.840 398.848-34.383L398.848-34.383Q398.426-33.961 397.793-33.961L397.793-33.961L397.195-33.961Q396.949-33.891 396.668-33.891L396.668-33.891Q396.387-33.891 396.070-33.961L396.070-33.961L395.086-33.961Q394.734-33.891 394.453-33.891L394.453-33.891Q394.207-33.891 393.996-33.961L393.996-33.961L393.363-33.961L393.328-33.926L393.328-31.605L393.258-31.605Q393.434-30.656 393.469-29.953L393.469-29.953Q393.504-29.707 393.504-29.496L393.504-29.496Q393.504-28.828 393.328-28.336L393.328-28.336L393.328-26.859L393.363-26.227L393.434-25.594Q393.469-25.383 393.469-25.172L393.469-25.172Q393.469-24.680 393.328-24.363L393.328-24.363L393.328-24.012L393.223-24.082L393.223-23.555L393.328-23.625L393.328-23.309Q393.293-23.273 393.293-23.238L393.293-23.238L393.328-23.203L393.328-19.230Q393.363-18.984 393.363-18.668L393.363-18.668L393.328-18.105L393.328-16.488L393.258-16.453Q393.328-16.207 393.328-15.926L393.328-15.926Q393.328-15.715 393.293-15.504L393.293-15.504L393.258-15.082L393.258-14.590L393.328-14.590L393.328-13.113Q393.363-12.902 393.363-12.691L393.363-12.691Q393.363-12.480 393.328-12.305L393.328-12.305L393.328-11.320Q393.504-10.652 393.504-9.738L393.504-9.738L393.504-9.457Q393.504-8.613 393.328-8.156L393.328-8.156L393.328-6.855Q393.363-6.539 393.363-6.188L393.363-6.188Q393.363-5.836 393.328-5.414L393.328-5.414L393.328-4.078Q393.434-3.902 393.434-3.621L393.434-3.621Q393.434-3.340 393.328-2.953L393.328-2.953L393.328-1.582L393.293-1.301L393.258-1.301L393.223-1.055L393.188-1.020Q393.012-0.422 392.414-0.141L392.414-0.141Q392.098 0 391.781 0L391.781 0Q391.535 0 391.289-0.070L391.289-0.070L388.828-0.070Q388.512-0.070 388.230-0.211L388.230-0.211Q387.598-0.352 387.352-0.984L387.352-0.984Q387.246-1.301 387.246-1.652L387.246-1.652Q387.246-1.898 387.316-2.180L387.316-2.180L387.316-3.023Q387.211-3.375 387.211-3.762L387.211-3.762Q387.211-3.973 387.246-4.184L387.246-4.184L387.316-4.781L387.422-5.379L387.316-5.344L387.316-6.891L387.352-6.891L387.387-6.961Q387.246-7.453 387.246-7.805L387.246-7.805Q387.246-8.051 387.316-8.191L387.316-8.191L387.316-10.090L387.352-10.090Q387.281-10.477 387.281-10.793L387.281-10.793Q387.281-11.004 387.316-11.180L387.316-11.180L387.316-11.672L387.387-11.637L387.352-12.270L387.281-12.902Q387.246-13.219 387.246-13.465L387.246-13.465Q387.246-13.887 387.316-14.203L387.316-14.203L387.316-17.859Q387.387-17.824 387.422-17.824L387.422-17.824Q387.422-18 387.387-18.176L387.387-18.176L387.316-18.422Q387.141-19.266 387.141-20.531L387.141-20.531L387.141-20.988Q387.176-21.586 387.211-22.324L387.211-22.324Q387.246-22.816 387.316-23.555L387.316-23.555Q387.316-25.488 387.352-25.488L387.352-25.488L387.281-26.297L387.281-27.422Q387.281-28.090 387.387-28.652L387.387-28.652Q387.387-28.688 387.352-28.688L387.352-28.688L387.316-28.652L387.316-31.465L387.387-31.500L387.316-31.500L387.316-32.133L387.387-32.133L387.387-32.414L387.316-32.449L387.316-33.961L385.559-33.961Q385.172-33.855 384.574-33.820L384.574-33.820Q384.258-33.785 383.906-33.785L383.906-33.785Q383.590-33.785 383.273-33.820L383.273-33.820Q381.691-33.996 381.516-34.805L381.516-34.805Q381.340-35.121 381.340-35.438L381.340-35.438L381.340-36.949Q381.199-37.301 381.199-37.793L381.199-37.793L381.199-38.004Q381.234-38.707 381.480-39.059L381.480-39.059Q381.762-39.656 382.395-39.867L382.395-39.867Q382.746-40.043 383.379-40.043L383.379-40.043Q383.941-40.043 384.398-39.938L384.398-39.938L384.609-39.938L384.574-39.902L385.031-39.902L385.031-39.938L385.242-39.938Q385.699-40.078 386.156-40.078L386.156-40.078Q386.648-40.078 387.176-39.938L387.176-39.938L387.457-39.938L387.563-39.832L387.668-39.832L387.703-39.938L388.617-39.938L388.582-39.902L389.109-39.938L389.320-39.938Q389.531-39.973 389.742-39.973L389.742-39.973Q389.953-39.973 390.164-39.938L390.164-39.938L390.762-39.938L390.832-39.867L390.832-39.938L391.465-39.938Q391.957-40.043 392.660-40.043L392.660-40.043L393.012-40.043L393.820-39.973L394.594-39.938L396.281-39.938Q396.492-40.043 396.773-40.043L396.773-40.043Q397.090-40.043 397.441-39.938L397.441-39.938L397.793-39.938Q398.777-39.938 399.164-39.023L399.164-39.023Q399.340-38.813 399.340-38.426L399.340-38.426Q399.340-38.145 399.234-37.723L399.234-37.723L399.305-37.723Z"></path><path d="M423.176-4.605L423.211-4.219L423.211-3.586Q423.211-3.340 423.176-3.164L423.176-3.164L423.176-2.637L423.141-2.602L423.176-2.566L423.176-1.617Q423.176-1.020 422.789-0.598L422.789-0.598Q422.332-0.070 421.559-0.070L421.559-0.070Q421.313-0.070 421.066-0.105L421.066-0.105L419.730-0.105L418.043-0.070L416.355 0L415.582 0Q414.070 0 412.980-0.105L412.980-0.105L412.418-0.105Q411.855-0.070 411.363-0.070L411.363-0.070Q410.871-0.070 410.449-0.105L410.449-0.105L409.078-0.105Q408.902-0.070 408.727-0.070L408.727-0.070Q408.551-0.070 408.340-0.105L408.340-0.105L407.707-0.105Q406.547-0.105 406.160-1.688L406.160-1.688Q405.984-2.320 405.984-2.918L405.984-2.918Q405.984-3.586 406.230-4.184L406.230-4.184Q406.301-4.324 406.301-4.395L406.301-4.395Q406.301-4.500 406.230-4.570L406.230-4.570L406.230-8.402Q406.125-9.211 406.090-9.949L406.090-9.949Q406.090-10.898 406.230-11.496L406.230-11.496L406.230-12.234Q406.160-12.621 406.160-12.902L406.160-12.902Q406.160-13.219 406.230-13.395L406.230-13.395L406.230-13.430Q406.336-13.641 406.336-13.922L406.336-13.922L406.230-13.887L406.230-14.906Q406.230-15.152 406.266-15.539L406.266-15.539L406.230-15.574L406.230-16.418Q406.090-16.945 406.090-17.613L406.090-17.613L406.160-18.211L406.230-18.773L406.230-19.371L406.160-19.898L406.125-20.461Q406.125-21.094 406.230-21.586L406.230-21.586L406.230-26.789L406.266-26.789L406.301-27L406.230-27L406.230-29.637Q406.160-30.023 406.160-30.305L406.160-30.305Q406.160-30.621 406.230-30.797L406.230-30.797L406.230-31.887Q406.020-32.484 406.020-33.504L406.020-33.504L406.020-34.031Q406.055-34.453 406.125-35.191L406.125-35.191L406.195-35.754L406.230-36.246L406.230-37.652Q406.195-37.969 406.195-38.215L406.195-38.215Q406.195-38.953 406.441-39.234L406.441-39.234Q406.652-39.586 407.004-39.797L407.004-39.797L407.004-39.762L407.145-39.867L407.285-39.902Q407.602-40.043 408.164-40.043L408.164-40.043L409.078-39.973L410.273-39.973L410.625-40.008L410.977-40.043L411.750-40.113L412.031-40.113Q412.734-40.113 413.191-39.973L413.191-39.973L413.965-39.973Q413.965-39.902 414-39.867L414-39.867L414.281-39.867L414.246-39.973L414.809-39.973Q414.879-39.902 414.949-39.902L414.949-39.902Q415.020-39.902 415.090-39.973L415.090-39.973L415.160-39.973Q415.547-40.113 416.109-40.113L416.109-40.113L416.320-40.113L416.918-40.043L417.445-39.973L419.133-39.973L419.590-40.008Q419.836-40.008 420.047-39.973L420.047-39.973L421.629-39.973Q422.051-39.973 422.402-39.762L422.402-39.762Q422.789-39.551 422.965-39.199L422.965-39.199Q423.246-38.848 423.246-38.355L423.246-38.355Q423.246-38.145 423.176-37.898L423.176-37.898L423.176-36.492Q423.141-36.527 423.105-36.527L423.105-36.527Q423.070-36.527 423.035-36.457L423.035-36.457L423.035-36.387L423.176-36.281L423.176-35.473Q423.176-35.297 423.105-35.086L423.105-35.086Q423-34.242 422.297-34.137L422.297-34.137Q421.980-33.996 421.664-33.996L421.664-33.996L421.137-33.996Q420.926-33.926 420.645-33.926L420.645-33.926Q420.363-33.926 420.012-33.996L420.012-33.996L418.570-33.996L418.500-34.066L418.008-34.066L418.043-33.996L412.348-33.996L412.207-33.855L412.207-33.504L412.031-33.574L412.066-33.363L412.066-33.223L412.102-33.082L412.207-33.082L412.207-32.309L412.137-32.344L412.137-32.168L412.207-32.238L412.172-31.711Q412.277-31.219 412.277-30.902L412.277-30.902Q412.277-30.656 412.207-30.480L412.207-30.480L412.207-29.496L412.172-29.602Q412.313-29.074 412.313-28.441L412.313-28.441Q412.313-27.914 412.207-27.352L412.207-27.352L412.207-26.016L414.633-26.016L414.949-26.051L415.301-26.086L415.477-26.086Q415.758-26.086 415.969-26.016L415.969-26.016L416.039-26.016L416.039-25.980L416.391-25.910L416.320-26.016L417.129-26.016Q417.375-26.086 417.691-26.086L417.691-26.086L418.254-26.016L418.676-26.016Q418.992-26.016 419.309-25.875L419.309-25.875L419.414-25.805Q420.188-25.383 420.188-24.539L420.188-24.539L420.188-22.008Q420.258-21.797 420.258-21.621L420.258-21.621Q420.258-21.270 420.047-20.918L420.047-20.918Q419.695-20.180 418.922-20.074L418.922-20.074Q418.676-20.004 418.289-20.004L418.289-20.004L417.973-20.039L416.145-20.039Q415.688-19.969 415.125-19.969L415.125-19.969Q414.598-19.969 414-20.039L414-20.039L412.840-20.039L412.770-20.145L412.699-20.250L412.418-20.039L412.207-20.039L412.207-19.230Q412.242-19.090 412.242-18.879L412.242-18.879L412.207-18.492L412.207-17.719Q412.313-17.016 412.313-16.453L412.313-16.453Q412.313-15.891 412.207-15.504L412.207-15.504L412.207-14.836L412.172-14.766L412.172-14.414L412.207-10.582Q412.313-10.336 412.313-10.090L412.313-10.090Q412.313-9.809 412.207-9.527L412.207-9.527L412.207-8.402L412.277-8.016L412.313-7.559L412.313-7.348Q412.313-6.926 412.207-6.715L412.207-6.715L412.207-6.082L413.051-6.082Q413.367-6.117 413.789-6.117L413.789-6.117L414.211-6.117L414.773-6.047L415.336-6.012L415.195-6.082L416.883-6.082Q417.059-6.117 417.305-6.117L417.305-6.117L417.973-6.117L418.324-6.082L421.664-6.082Q422.895-6.082 423.141-4.887L423.141-4.887Q423.176-4.746 423.176-4.605L423.176-4.605Z"></path><path d="M449.367-10.512L449.367-9.949Q449.367-9.457 449.332-8.965L449.332-8.965Q449.367-8.754 449.367-8.543L449.367-8.543Q449.367-8.121 449.156-7.699L449.156-7.699L449.016-7.207L449.016-7.102Q449.016-6.398 448.559-5.871L448.559-5.871Q448.242-5.098 447.785-4.395L447.785-4.395Q447.398-3.270 445.887-2.145L445.887-2.145Q445.289-1.617 444.691-1.230L444.691-1.230L444.621-1.301Q444.480-1.230 444.375-1.160L444.375-1.160L444.445-1.055L443.988-0.809Q443.566-0.387 442.723-0.105L442.723-0.105Q441.984 0.141 441.281 0.141L441.281 0.141Q440.789 0.246 440.297 0.281L440.297 0.281Q439.840 0.457 439.313 0.457L439.313 0.457Q438.750 0.457 438.117 0.246L438.117 0.246L437.801 0.176L437.836 0.141L437.625 0.105L437.625 0.141Q436.535-0.035 435.551-0.457L435.551-0.457L435.480-0.598L435.410-0.527Q434.883-0.738 434.391-1.055L434.391-1.055Q433.793-1.125 433.477-1.652L433.477-1.652L433.336-1.758L433.301-1.863L433.195-1.969Q433.160-2.004 433.125-2.004L433.125-2.004Q433.090-2.004 433.055-1.969L433.055-1.969Q431.859-2.953 431.086-4.043L431.086-4.043Q430.137-5.379 429.926-6.645L429.926-6.645L429.750-7.242Q429.645-7.629 429.609-7.910L429.609-7.910L429.609-8.121Q429.609-8.719 429.961-9.141L429.961-9.141Q430.137-9.598 430.699-9.598L430.699-9.598Q430.875-9.633 431.086-9.633L431.086-9.633L431.262-9.633L431.227-9.598L431.227-9.563Q431.402-9.563 431.578-9.598L431.578-9.598L431.508-9.633L432.527-9.633Q433.090-9.703 433.512-9.738L433.512-9.738Q434.074-9.738 434.426-9.598L434.426-9.598Q435.094-9.492 435.410-8.930L435.410-8.930Q435.832-8.438 435.902-7.770L435.902-7.770L435.938-7.734Q436.430-6.820 437.309-6.258L437.309-6.258Q438.012-5.941 439.031-5.695L439.031-5.695Q439.242-5.660 439.418-5.660L439.418-5.660Q441.527-5.660 443.074-8.156L443.074-8.156Q443.391-8.930 443.391-9.914L443.391-9.914Q443.391-10.301 443.355-10.723L443.355-10.723L443.180-11.496L443.004-12.305Q442.828-12.762 442.582-13.219L442.582-13.219Q442.195-13.605 441.984-14.133L441.984-14.133Q441.668-14.555 441-15.117L441-15.117L439.945-16.031L439.102-16.664L439.207-16.629L439.207-16.664Q436.887-17.824 435.586-19.125L435.586-19.125Q434.707-19.793 433.969-20.461L433.969-20.461Q433.547-20.707 433.266-21.094L433.266-21.094L432.422-22.043Q430.805-23.801 430.313-25.594L430.313-25.594L430.031-26.508L429.750-27.387Q429.504-28.266 429.504-28.969L429.504-28.969L429.504-29.285Q429.469-29.848 429.469-30.410L429.469-30.410Q429.434-30.762 429.434-31.078L429.434-31.078Q429.434-31.781 429.645-32.238L429.645-32.238Q429.785-32.836 429.961-33.469L429.961-33.469Q430.031-33.750 430.137-33.996L430.137-33.996Q430.770-35.613 431.824-36.914L431.824-36.914Q431.895-36.879 431.930-36.879L431.930-36.879Q431.965-36.879 432-36.914L432-36.914L432.141-37.090L432.035-37.125L432.492-37.652Q432.949-38.355 433.934-39.059L433.934-39.059Q434.953-39.762 435.762-39.832L435.762-39.832Q436.184-40.008 436.641-40.113L436.641-40.113Q437.063-40.430 437.555-40.430L437.555-40.430Q437.695-40.430 437.836-40.395L437.836-40.395Q438.398-40.500 438.996-40.535L438.996-40.535L439.102-40.430L439.277-40.430L439.313-40.535L439.734-40.535L439.945-40.500L440.438-40.500Q441.844-40.500 442.652-40.008L442.652-40.008Q443.109-39.832 443.602-39.621L443.602-39.621Q444.234-39.480 444.691-39.023L444.691-39.023L445.008-38.813Q446.555-37.969 447.891-35.789L447.891-35.789Q448.488-35.051 448.945-33.961L448.945-33.961Q449.332-33.047 449.332-32.414L449.332-32.414Q449.332-32.168 449.262-31.957L449.262-31.957Q449.227-31.535 448.945-31.254L448.945-31.254L448.699-31.008Q448.523-30.867 448.418-30.727L448.418-30.727Q448.102-30.586 447.750-30.586L447.750-30.586L447.152-30.586Q446.660-30.410 446.133-30.410L446.133-30.410Q445.641-30.410 445.113-30.586L445.113-30.586L444.656-30.586Q443.918-30.586 443.461-31.219L443.461-31.219Q443.180-31.430 442.934-32.098L442.934-32.098L442.758-32.625Q442.617-32.906 442.477-33.082L442.477-33.082Q442.195-33.434 441.738-33.750L441.738-33.750L441.316-33.996L440.895-34.277Q440.191-34.559 439.453-34.559L439.453-34.559Q439.207-34.559 438.926-34.523L438.926-34.523Q437.133-34.277 436.113-32.730L436.113-32.730Q435.656-31.816 435.445-30.094L435.445-30.094Q435.480-29.285 435.656-28.617L435.656-28.617Q435.797-28.230 435.902-27.809L435.902-27.809L436.008-27.492Q436.113-27.211 436.254-26.965L436.254-26.965Q436.500-26.543 436.816-26.086L436.816-26.086Q436.922-26.016 437.063-25.805L437.063-25.805L437.344-25.453Q437.695-25.031 437.941-24.926L437.941-24.926L438.574-24.398L438.539-24.328Q438.715-24.152 438.961-24.082L438.961-24.082L438.996-24.047Q439.594-23.906 439.910-23.379L439.910-23.379L441-22.641L442.125-21.867L442.406-21.621L442.441-21.656L443.180-21.129Q443.637-20.918 443.918-20.566L443.918-20.566Q445.008-19.688 445.816-18.844L445.816-18.844L446.027-18.633Q446.625-17.965 447.258-16.910L447.258-16.910L447.785-16.031L448.313-15.117Q449.191-13.184 449.332-10.828L449.332-10.828L449.297-10.828L449.367-10.512Z"></path></g></g><g transform="translate(-182.01976839450037 -112.00000000000001) scale(2)" id="logomark"><g fill="#FFFFFF"><path fill-rule="evenodd" clip-rule="evenodd" d="M55 31.077V87.12C52.566 94.536 44.258 100 34.38 100c-11.787 0-21.34-7.779-21.34-17.375S22.593 65.25 34.38 65.25c3.801 0 7.368.812 10.456 2.226V0h1.536c1.104 6.981 5.84 11.392 11.379 15.077 6.535 4.35 12.525 9.223 16.934 15.824 7.529 11.27 7.184 23.544-.975 33.866-.301.383-.651.727-1.349 1.493C76.621 50.318 69.795 36.931 55 31.077z"></path></g></g></svg>